<?xml version="1.0" encoding="utf-8"?>
<!-- Generator: Adobe Illustrator 24.0.2, SVG Export Plug-In . SVG Version: 6.00 Build 0)  -->
<svg version="1.1" id="Capa_1" xmlns="http://www.w3.org/2000/svg" xmlns:xlink="http://www.w3.org/1999/xlink" x="0px" y="0px"
	 viewBox="0 0 272.1 170.9" style="enable-background:new 0 0 272.1 170.9;" xml:space="preserve">
<style type="text/css">
	.st0{fill:none;stroke:#000000;stroke-miterlimit:10;}
	.st1{fill:#00FFFF;}
	.st2{fill:#F7931E;}
	.st3{fill:#8CC63F;}
</style>
<title>1</title>
<line class="st0" x1="30.7" y1="0" x2="30.6" y2="83.1"/>
<line class="st0" x1="120.3" y1="82.4" x2="30.6" y2="83.1"/>
<path d="M0.2,50.4c0,2.9,0.8,6-0.2,8.9l0.7,0.2c0.1-0.7,0.2-1.3,0.3-2C1,57,1.1,55.7,1.7,55.5c0.9-0.3,0.5,3.3,0.5,3.8
	c0,0.2,0.2,0.3,0.4,0.3c0.2,0,0.3-0.2,0.3-0.3c0-0.7,0.1-1.4,0.1-2.1c0.1-0.7-0.1-1.5-0.5-2.1c-0.4-0.4-1.1-0.5-1.5-0.1
	c0,0,0,0-0.1,0.1c-0.4,0.6-0.7,1.2-0.7,1.9c-0.1,0.7-0.1,1.4-0.3,2.1c-0.1,0.2,0.1,0.4,0.3,0.5c0.2,0.1,0.4-0.1,0.5-0.3
	c1-2.9,0.2-6.1,0.2-9.1c0-0.2-0.2-0.3-0.4-0.3C0.3,50.1,0.2,50.2,0.2,50.4L0.2,50.4z"/>
<path d="M4.3,55.5C4.1,56.1,4,56.7,4,57.4c-0.1,0.6,0,1.3,0.2,1.9c0.1,0.3,0.3,0.5,0.6,0.6c0.3,0,0.6-0.1,0.9-0.3
	c0.4-0.3,0.7-0.7,0.9-1.1c0.3-0.4,0.4-1,0.3-1.5c-0.2-1.1-1.4-1.6-2.3-1.9c-0.5-0.1-0.7,0.6-0.2,0.7c0.4,0.1,0.8,0.3,1.1,0.5
	l0.1,0.1l0,0l0,0l0.2,0.2c0,0,0.1,0.1,0,0l0.1,0.1l0.1,0.1c0,0,0,0.1,0,0l0,0v0.1c0,0,0,0,0,0.1c0,0,0,0.1,0,0c0,0,0,0.1,0,0.1
	c0,0,0,0.1,0,0.2l0,0c0,0,0,0,0,0.1c0,0.1,0,0.1,0,0.2c0,0.1-0.1,0.2-0.1,0.3c-0.2,0.4-0.4,0.8-0.8,1.1l0,0.3c0.1-0.1,0,0,0,0
	L5,59.1c-0.1,0-0.1,0,0,0H4.9l0,0l0,0c0,0,0.1,0,0,0s0,0,0,0l0,0c0,0,0,0.1,0,0l0,0c0,0,0,0,0,0s0,0.1,0,0c0-0.1-0.1-0.2-0.1-0.3
	c0,0,0,0,0-0.1s0,0.1,0,0c0-0.1,0-0.1,0-0.2c0-0.3,0-0.6,0-0.9s0-0.7,0.1-1v-0.1c0-0.1,0,0,0,0v-0.2c0-0.1,0-0.3,0.1-0.4
	c0.1-0.2-0.1-0.4-0.3-0.5c-0.2-0.1-0.4,0.1-0.5,0.3c0,0,0,0,0,0L4.3,55.5z"/>
<path d="M8.2,59.4c0-1.3-0.2-2.5-0.2-3.8H7.3c0,0.7,0,1.4,0,2.2c0,0.2,0.2,0.4,0.4,0.4C7.8,58.1,8,58,8,57.9
	c0.1-0.2,0.1-0.4,0.2-0.6c0.1-0.1,0.2-0.3,0.3-0.4c0-0.1,0.1-0.1,0.2-0.2l0,0c0,0,0,0,0.1,0h0.1c0.1,0-0.1,0,0,0h0.1c0.1,0,0,0,0,0
	s0.1,0,0.1,0h0c0.1,0,0,0,0,0h0.1l0,0l0,0l0.1,0.1c-0.1-0.1,0,0,0,0l0.1,0.1c0,0.1,0,0,0,0c0.1,0.4,0.2,0.8,0.1,1.2L10,58
	c-0.2-0.4-0.2-0.8-0.2-1.2c0-0.3,0.2-0.6,0.6-0.8L10,56c0.9,0.9,0.7,2.3,0.7,3.4c0,0.2,0.2,0.3,0.4,0.3c0.2,0,0.3-0.2,0.3-0.3
	c0-1.4,0.2-2.9-0.9-3.9c-0.1-0.1-0.3-0.1-0.4-0.1C9,55.9,9,57.3,9.3,58.2c0,0.2,0.2,0.3,0.4,0.3c0.2,0,0.3-0.2,0.3-0.4
	c0.1-0.8,0-2.2-1-2.2s-1.5,1.1-1.7,1.8l0.7,0.1c-0.1-0.7,0-1.4,0-2.2c0-0.2-0.2-0.3-0.4-0.3c-0.2,0-0.3,0.2-0.3,0.3
	c-0.1,1.3,0.2,2.5,0.2,3.8c0,0.2,0.2,0.3,0.4,0.3C8.1,59.7,8.2,59.5,8.2,59.4L8.2,59.4z"/>
<path d="M13.6,58.7c-0.4,0.2-0.7,0-0.8-0.5c-0.1-0.5,0.1-1,0.6-1.3c0.4-0.2,0.6,0.1,0.7,0.4C14.1,57.8,14,58.3,13.6,58.7
	c-0.1,0.1-0.4,0.3-0.6,0.2c-0.2-0.2-0.4-0.5-0.5-0.8c-0.3-0.8-0.4-1.6-0.4-2.4c-0.1-1.8-0.1-3.6-0.2-5.4l-0.7,0.1l0.2,0.6
	c0.1,0.2,0.3,0.3,0.5,0.3c0.2-0.1,0.3-0.3,0.3-0.5l0,0l-0.2-0.6c0-0.2-0.2-0.3-0.4-0.3c-0.2,0-0.3,0.2-0.3,0.4
	c0,1.1,0.1,2.3,0.1,3.4c0,1,0,1.9,0.1,2.9s0.3,2.4,1.2,2.9c1.1,0.7,2.3-0.8,2.3-1.8c0-0.6-0.3-1.2-0.8-1.5c-0.6-0.3-1.3,0-1.6,0.5
	c-0.5,0.6-0.6,1.4-0.3,2.1c0.3,0.6,1,0.9,1.7,0.6c0,0,0.1,0,0.1-0.1C14.3,59.1,13.9,58.5,13.6,58.7L13.6,58.7z"/>
<path d="M14.8,56.3c0.6,1.2,0.9,2.5,0.8,3.8l0.7-0.1c-0.1-0.1-0.1-0.2-0.1-0.4c0-0.2,0-0.3,0-0.5c0-0.3,0.1-0.7,0.3-1
	c0.1-0.3,0.3-0.6,0.5-0.8c0,0,0.1-0.1,0.1-0.1l0.1-0.1c0,0,0.1,0,0,0h0.1h0.2c0.2,0.1,0.4-0.1,0.5-0.3c0.1-0.2-0.1-0.4-0.3-0.5
	c-0.9-0.2-1.5,0.6-1.9,1.3c-0.4,0.8-0.5,1.7-0.3,2.5c0,0.2,0.2,0.3,0.4,0.3c0.2,0,0.3-0.2,0.3-0.4c0.1-1.5-0.2-2.9-0.9-4.2
	C15.1,55.5,14.5,55.9,14.8,56.3L14.8,56.3z"/>
<path d="M17.6,58.5c0.7,0.4,1.6,0.2,2.1-0.4c0.4-0.5,0.8-1.3,0.1-1.8c-0.3-0.2-0.7-0.2-1.1-0.1c-0.4,0.1-0.8,0.4-1.1,0.7
	c-0.4,0.7-0.5,1.5-0.1,2.3c0.2,0.4,0.5,0.8,0.9,1c0.5,0.2,1,0.3,1.5,0.2c0.2,0,0.3-0.2,0.3-0.4c0-0.3,0-0.6,0-0.9
	c-0.1-0.2-0.3-0.3-0.5-0.3c0,0,0,0,0,0c-0.2,0.1-0.3,0.3-0.3,0.5c0,0.2,0,0.5,0,0.7l0.3-0.4h-0.1h-0.1c-0.1,0-0.2,0-0.3,0l0,0h-0.1
	H19c0,0-0.1-0.1-0.1,0l-0.2-0.1l-0.1-0.1c0.1,0,0,0,0,0l-0.1-0.2l0,0c0,0,0,0,0,0l-0.1-0.1L18.3,59c0,0,0-0.1,0,0c0,0,0-0.1,0-0.1
	l-0.1-0.2c0,0,0-0.1,0-0.1c0,0,0-0.1,0,0s0,0,0,0c0-0.1,0-0.3,0-0.4c0,0.1,0,0,0,0c0,0,0-0.1,0-0.1c0,0,0-0.1,0-0.1c0,0,0-0.1,0-0.1
	c0-0.1,0.1-0.1,0.1-0.2l0.1-0.1c0,0,0,0,0,0s0,0,0,0l0.1-0.2l0,0l0.1-0.1l0.1-0.1l0,0h0.1l0.3-0.1h0.1h0.1c0.1,0,0,0,0,0h0.1
	c0,0-0.1,0,0,0s0,0,0,0l0,0l0,0c0,0,0-0.1,0,0c0,0,0,0,0,0.1c0-0.1,0-0.1,0,0v0.1c0,0,0-0.1,0,0c0,0.1,0,0.1,0,0.2c0,0.1,0,0,0,0
	v0.1l-0.1,0.2l0,0c0,0.1,0,0,0,0l-0.1,0.1L19,58l0,0h-0.1L18.8,58h0c0,0,0.1,0,0,0l-0.2,0.1c0,0,0.1,0,0,0h-0.2c-0.1,0,0,0,0,0h-0.1
	h-0.1c-0.1,0,0,0,0,0H18c-0.4-0.2-0.8,0.4-0.4,0.6L17.6,58.5z"/>
<path d="M20.8,58.9c-0.1,0.6,0.3,1.2,0.9,1.4c0.5,0.2,1.1,0,1.5-0.3c0.4-0.4,0.5-1,0.3-1.5c-0.4-0.4-0.8-0.7-1.4-0.9l-0.4-0.2l0,0
	l0,0h-0.1l-0.2-0.1c-0.1-0.1-0.3-0.1-0.4-0.2c-0.1,0,0,0,0,0l-0.1-0.1l-0.1,0l0,0c0,0,0,0.1,0,0l-0.1,0.5c0.1-0.1,0.1-0.2,0.2-0.3
	l0.2-0.2c0.2-0.1,0.4-0.2,0.6-0.3l0.3-0.1h0.5h0.1c0,0,0.1,0,0,0s0,0,0,0c0.2,0.1,0.4,0,0.5-0.1c0.1-0.2,0-0.4-0.1-0.5
	c-0.5-0.2-1.1-0.3-1.6-0.1c-0.5,0.1-1,0.4-1.4,0.8c-0.1,0.1-0.1,0.3-0.1,0.5c0.3,0.4,0.7,0.7,1.2,0.8l0.4,0.2l0.2,0.1H22
	c0,0,0.1,0,0,0c0.2,0.1,0.4,0.2,0.6,0.3h0.1l0,0l0.1,0.1c0,0,0,0,0,0s0-0.1,0,0l0,0c0,0,0,0.1,0,0v0.1c0-0.1,0,0,0,0.1s0,0.1,0,0
	s0,0,0,0.1c0,0,0,0.1,0,0.1c0,0,0,0.1,0,0c0,0.1,0,0.1-0.1,0.2c0,0-0.1,0.1,0,0l0,0c0,0-0.1,0.1-0.1,0.1l-0.1,0.1c0,0-0.1,0,0,0
	h-0.1h-0.1h-0.1c0.1,0,0,0,0,0H22h-0.1h-0.1c-0.1,0,0,0,0,0l-0.1-0.1c-0.1,0,0.1,0.1,0,0c0,0,0-0.1-0.1-0.1l0,0c0,0,0-0.1,0-0.1
	v-0.1c0,0.1,0,0,0,0s0,0,0-0.1s0,0,0,0s0,0,0-0.1c0-0.1,0-0.1,0-0.2c0-0.2-0.2-0.3-0.4-0.3c-0.2,0-0.3,0.2-0.3,0.3L20.8,58.9z"/>
<path d="M3.7,20.8c0-3.2,0.8-6.6,0-9.8C3.6,10.6,3,10.8,3,11.1c-0.1,1-0.1,2.1,0.1,3.1c0.1,1.2,0.4,2.4,0.9,3.5
	c0.3,0.7,1.1,1,1.8,0.7c0.2-0.1,0.3-0.2,0.4-0.3c0.7-0.9,1.2-2.1,1.3-3.2c0.2-1.3,0.4-2.6,0.3-3.9c0-0.2-0.2-0.3-0.4-0.3
	c-0.2,0-0.3,0.2-0.3,0.3c0,3.3-0.8,6.8,0.2,10c0.1,0.5,0.9,0.3,0.7-0.2c-1-3.2-0.2-6.6-0.2-9.8H7c0,0.9,0,1.9-0.2,2.8
	C6.8,15,6.5,16.1,6,17.2c-0.1,0.3-0.4,0.6-0.7,0.7s-0.5-0.3-0.7-0.5c-0.5-1-0.7-2-0.8-3.1c-0.2-1-0.2-2-0.1-3.1L3,11.2
	c0.8,3.1,0,6.4,0,9.6c0,0.2,0.2,0.3,0.4,0.3C3.6,21.1,3.7,21,3.7,20.8L3.7,20.8z"/>
<path d="M8.6,16.9c-0.2,0.7-0.2,1.4-0.2,2.1c0.1,0.7,0.2,1.6,1,1.9c1.5,0.5,1.8-1.8,1.9-2.8c0-0.6,0-1.2,0-1.9
	c0-0.2-0.2-0.4-0.4-0.4c-0.1,0-0.2,0.1-0.3,0.2c-0.1,0.2-0.2,0.5-0.2,0.7c0,0.2,0.1,0.4,0.3,0.5c0.2,0.1,0.4-0.1,0.5-0.3
	c0,0,0,0,0,0c0-0.2,0-0.4,0.1-0.6l-0.7-0.2c0.1,1.1,0,2.2-0.2,3.2c0,0.2-0.1,0.4-0.3,0.6l-0.1,0.1c-0.1,0.1,0,0,0,0H9.9
	c0.1,0,0,0,0,0H9.8c0.1,0,0,0,0,0s0,0-0.1,0s0,0,0,0s-0.2-0.1-0.1,0c-0.1,0-0.2-0.1-0.2-0.2c-0.1-0.2-0.2-0.5-0.2-0.8
	c-0.1-0.7,0-1.3,0.2-2c0-0.2-0.1-0.4-0.3-0.4C8.9,16.6,8.7,16.7,8.6,16.9L8.6,16.9z"/>
<path d="M11.6,16.3c0,1.9,0.2,3.7,0.5,5.5c0.1,0.8,0.3,1.5,0.3,2.3c0,0.3,0,0.7-0.4,0.7c-0.4,0-0.8-0.2-1-0.6
	c-0.3-0.4-0.9,0-0.6,0.4c0.4,0.8,1.4,1.1,2.2,0.8c0.8-0.4,0.6-1.3,0.4-2c-0.2-1.1-0.3-2.2-0.5-3.3c-0.2-1.2-0.3-2.5-0.3-3.7
	C12.3,15.8,11.6,15.8,11.6,16.3L11.6,16.3z"/>
<path d="M15.1,19l-0.2,0.2l-0.1,0.1l0,0l-0.1,0l-0.3,0.2l-0.1,0.1c0,0-0.1,0-0.1,0s0.1,0,0,0l0,0l-0.3,0.1c0.1,0,0,0,0,0
	c0,0-0.1,0-0.1,0c0,0,0.1,0,0,0h-0.1h-0.1l0,0c0.1,0,0.1,0,0,0l-0.1-0.1c0,0,0,0,0,0v0v-0.1l0,0c0,0,0,0.1,0,0l-0.1-0.2
	c0,0,0,0,0-0.1c0-0.1,0,0,0,0s0-0.1,0-0.1c0-0.1,0-0.2,0-0.2c0,0,0-0.1,0-0.1c0-0.1,0,0.1,0,0s0,0,0-0.1c0-0.1,0-0.2,0.1-0.3v-0.1v0
	c0-0.1,0,0.1,0,0l0.1-0.2c0,0,0-0.1,0.1-0.1c0-0.1-0.1,0.1,0,0v-0.1l0.1-0.1l0.1,0c0.1,0-0.1,0,0,0l0.1-0.1l0,0l0,0l0,0l0.1,0h0.1
	c0.1,0-0.1,0,0,0l-0.4-0.3c0,0,0,0.1,0,0.1c0,0,0,0.1,0,0.1s0,0,0,0s0,0,0,0.1s0,0,0,0s0,0.1,0,0s0,0,0,0s0,0,0,0c0,0,0,0.1-0.1,0.1
	c0,0,0.1,0,0,0l0,0l-0.1,0.1l0,0c0,0,0,0,0,0l-0.1,0.1c-0.1,0-0.1,0.1-0.2,0.1h-0.1l0,0h-0.1L13,18.1c-0.2,0.1-0.3,0.3-0.3,0.5
	c0.1,0.2,0.3,0.3,0.5,0.3c0,0,0,0,0,0c0.4-0.1,0.8-0.3,1.1-0.6c0.4-0.4,0.5-0.9,0.4-1.4c0-0.2-0.2-0.3-0.4-0.3
	c-0.9,0.2-1.6,0.9-1.6,1.9c-0.1,0.4,0,0.8,0.2,1.1c0.2,0.4,0.6,0.6,1,0.6c0.7-0.1,1.3-0.4,1.7-0.9c0.1-0.1,0.1-0.4,0-0.5
	c-0.1-0.1-0.4-0.1-0.5,0L15.1,19z"/>
<path d="M14.7,17.1c0.8,1,0.7,2.3,0.9,3.4c0.1,0.2,0.3,0.3,0.5,0.2c0.1,0,0.3-0.2,0.3-0.3c0-0.6,0-1.3,0-1.9c0-0.3,0.1-0.5,0.2-0.7
	l0.1-0.1c0,0,0,0,0,0l0.1-0.1l0,0l0.1,0c0.1,0,0.1-0.1,0.2-0.1c0.2-0.1,0.3-0.3,0.3-0.5c-0.1-0.2-0.3-0.3-0.5-0.3l0,0
	c-1.6,0.5-1.3,2.5-1.3,3.8l0.7-0.1c-0.1-0.6-0.2-1.3-0.3-1.9c-0.1-0.7-0.4-1.3-0.8-1.8c-0.1-0.1-0.4-0.1-0.5,0
	C14.6,16.8,14.6,17,14.7,17.1L14.7,17.1z"/>
<path d="M17.5,19.3c0.5,0.1,0.9,0,1.3-0.3c0.3-0.2,0.6-0.5,0.7-0.9c0.2-0.5,0.1-1.4-0.4-1.7c-0.3-0.1-0.7,0-0.9,0.3
	c-0.3,0.4-0.5,0.9-0.6,1.4c-0.3,1,0.1,2.1,1,2.6c0.4,0.2,0.8,0.2,1.2,0c0.4-0.3,0.6-0.8,0.6-1.3c0-0.2,0-0.3,0-0.5
	c0-0.2-0.1-0.4-0.3-0.4c-0.2,0-0.4,0.1-0.4,0.3c0,0,0,0.1,0,0.1c0,0.1,0,0.3,0,0.4v0.1c0,0,0,0.1,0,0.1s0,0,0,0c0,0,0,0.1,0,0.1
	c0,0,0,0.1,0,0.1c0,0,0,0,0,0.1c0,0.1,0,0,0,0c0,0,0,0.1-0.1,0.1l0,0c0,0.1,0,0,0,0L19.6,20l0,0c0.1,0,0,0,0,0s-0.1,0.1,0,0h0h0
	c0,0,0.1,0,0,0h-0.1c0,0,0.1,0,0,0h-0.1l0,0L19,20l-0.1-0.1l0,0c0.1,0,0,0,0,0c-0.1-0.1-0.1-0.1-0.2-0.2l0,0v0l-0.1-0.1
	c0,0-0.1-0.1-0.1-0.1v-0.1c0-0.1,0,0,0,0c0-0.1-0.1-0.2-0.1-0.3c0-0.1,0-0.1,0-0.2c0-0.1,0,0,0,0c0,0,0-0.1,0-0.1v-0.4
	c0,0,0-0.1,0-0.1l0,0c0-0.1,0,0.1,0,0c0-0.1,0-0.1,0-0.2c0-0.1,0.1-0.3,0.1-0.4s0.1-0.2,0.1-0.3v-0.1l0.1-0.1c0-0.1,0.1-0.1,0.1-0.2
	c0,0-0.1,0.1,0,0l0,0l0.1,0c0,0-0.1,0,0,0l0,0l0,0c0,0-0.1,0,0,0s0.1,0,0,0s0,0,0,0s-0.1,0-0.1,0l0,0c0,0-0.1,0,0,0s-0.1-0.1,0,0
	l0,0c0,0,0-0.1,0,0s0,0,0,0v0c0,0.1,0,0.1,0,0s0,0,0,0.1c0,0.1,0,0.1,0,0.2c0,0.1,0-0.1,0,0s0,0.1,0,0.1v0.2c0,0,0,0.1,0,0s0,0,0,0
	c0,0.1,0,0.1,0,0.2c0,0,0,0.1,0,0.1v0c0,0.1-0.1,0.1-0.1,0.2s0.1-0.1,0,0l0,0l-0.1,0.1c0,0-0.1,0.1,0,0h-0.1l-0.1,0h0
	c-0.1,0,0.1,0,0,0c-0.1,0-0.2,0.1-0.2,0.1H18c-0.1,0,0.1,0,0,0h-0.1c-0.1,0-0.2,0-0.3,0c-0.2,0-0.3,0.2-0.3,0.4
	C17.2,19.1,17.4,19.2,17.5,19.3L17.5,19.3z"/>
<path d="M20.9,18.9c-0.4,0.6-0.2,1.3,0.3,1.7c0.7,0.5,1.6,0.3,2.1-0.4c0.2-0.3,0.3-0.8,0.2-1.2c-0.2-0.6-0.6-1.1-1.2-1.4
	c-0.3-0.2-0.6-0.4-0.9-0.5L21,16.9l-0.2-0.1l-0.1,0l0,0c0,0,0.1,0,0,0v0.5c0.7-0.4,1.6-0.6,2.4-0.4c0.5,0,0.5-0.7,0-0.8
	c-0.5,0-1,0-1.5,0c-0.5,0.1-1.1,0.3-1.5,0.6c-0.1,0.1-0.1,0.4,0,0.5c0.4,0.3,0.9,0.6,1.3,0.8c0.2,0.1,0.5,0.3,0.7,0.4h0
	c0.1,0.1,0,0,0,0l0.1,0.1l0.1,0.1l0.1,0.1l0,0l0,0c0,0,0,0.1,0.1,0.1c0,0,0,0.1,0,0.1c0-0.1,0,0,0,0c0,0.1,0,0.1,0,0.2
	c0-0.1,0,0,0,0v0.1c0,0.1,0,0,0,0s0,0,0,0.1c0,0.1,0,0.1,0,0.2c0-0.1,0,0.1-0.1,0.1v0.1c0.1-0.1,0,0,0,0l-0.1,0.1c0.1-0.1,0,0-0.1,0
	h-0.1c-0.1,0,0.1,0,0,0h-0.2h-0.1c0,0,0.1,0,0,0h-0.2c-0.1,0,0.1,0,0,0h-0.2c-0.1,0,0.1,0,0,0h-0.1h-0.1c-0.1,0,0,0,0,0h0
	c-0.1-0.1,0,0,0,0v0c-0.1-0.1,0,0,0,0s0-0.1,0-0.1c0,0.1,0,0,0,0v-0.1c0-0.1,0,0.1,0,0v-0.1v-0.1l0,0v-0.1c0.1-0.2,0-0.4-0.1-0.5
	C21.3,18.6,21,18.6,20.9,18.9C20.9,18.8,20.9,18.8,20.9,18.9L20.9,18.9z"/>
<path d="M51.9,86.9h-0.5c-0.2,0-0.3,0.2-0.3,0.4c0,0.2,0.2,0.3,0.3,0.3c0.9,0,1.8-0.1,2.7-0.3c0.8-0.2,1.7-0.2,2.5,0.1
	c0.4,0.2,0.8-0.4,0.4-0.6c-1.8-0.8-3.7,0.3-5.5,0.1v0.8h0.5c0.2,0,0.3-0.2,0.3-0.4C52.2,87,52.1,86.9,51.9,86.9z"/>
<path d="M52.9,87.4c-0.1-0.2-0.3-0.3-0.4-0.4c-0.2-0.1-0.4,0-0.5,0.2c0,0.1,0,0.1,0,0.2c-0.1,1.2-0.2,2.4-0.1,3.6
	c0,0.6,0.2,1.2,0.6,1.7c0.4,0.5,1.1,0.8,1.7,0.7c0.7-0.2,1.3-0.6,1.7-1.3c0.2-0.4-0.4-0.8-0.7-0.4c-0.2,0.5-0.6,0.8-1.1,0.9
	c-0.5,0.1-1-0.2-1.2-0.6c-0.2-0.4-0.3-0.8-0.3-1.2c0-0.6,0-1.2,0-1.7c0-0.6,0.1-1.1,0.1-1.7l-0.6,0.3c0.1,0,0.1,0.1,0.2,0.2
	c0.1,0.2,0.3,0.2,0.5,0.1C52.9,87.9,53,87.6,52.9,87.4L52.9,87.4z"/>
<path d="M51.1,90.9L51.1,90.9C51.2,90.9,51.2,90.9,51.1,90.9L51.1,90.9l0.3-0.1c0.3-0.1,0.5-0.1,0.8-0.2c0.5-0.1,1-0.2,1.5-0.2
	c0.2,0,0.4-0.2,0.4-0.4c0-0.2-0.2-0.4-0.4-0.4c-0.6,0-1.2,0.1-1.7,0.2c-0.3,0-0.5,0.1-0.8,0.2c-0.2,0-0.4,0.1-0.5,0.2
	c-0.2,0.1-0.2,0.3-0.1,0.5C50.6,91,50.9,91,51.1,90.9C51,90.9,51,90.9,51.1,90.9L51.1,90.9z"/>
<path d="M56.9,91.8c0.1,0.6,0.5,1.2,1.1,1.4c0.5,0.4,1.3,0.3,1.8-0.1c0.4-0.4,0.5-1.1,0.1-1.6c-0.4-0.4-0.8-0.8-1.4-0.9
	c-0.3-0.1-0.5-0.2-0.8-0.2c-0.2,0-0.5-0.1-0.7-0.1l0.3,0.6l0.1-0.1l0,0v-0.1l0.1-0.1l0,0h0l0.1-0.1l0,0h0.1l0.2-0.1h0.5
	c0.2,0,0.4,0,0.5,0c0.2,0,0.4-0.2,0.4-0.4c0-0.2-0.2-0.4-0.4-0.4c-0.4-0.1-0.8-0.1-1.3,0c-0.4,0.1-0.8,0.4-1,0.8
	c-0.1,0.2,0,0.4,0.2,0.5c0,0,0.1,0,0.1,0h0.4c0.1,0-0.1,0,0,0c0.2,0,0.4,0.1,0.6,0.1c0.1,0,0.2,0.1,0.3,0.1h0.1c0,0,0.1,0,0,0
	l0.2,0.1l0.3,0.2l0.1,0.1l0,0l0,0l0.1,0.1v0.1l0,0l0.1,0.1v0.1c0,0,0-0.1,0,0s0,0.1,0,0.1s0-0.1,0,0v0.1c0,0,0,0.1,0,0s0,0,0,0
	c0,0.1,0,0.1,0,0.2l0,0v0.1l0,0l0,0l-0.1,0.1c0,0,0,0,0,0H59l0,0h-0.1h-0.1c0.1,0,0,0,0,0c-0.1,0-0.1,0-0.2,0l0,0l0,0h-0.1l-0.2-0.1
	l0,0h-0.1l-0.2-0.1h-0.1l0,0l0,0l-0.1,0l-0.1-0.1c0,0-0.1-0.1,0,0L57.8,92v-0.1c0,0.1,0,0,0,0s0-0.1,0-0.1l0,0c0,0,0,0.1,0,0
	c0-0.2-0.2-0.4-0.4-0.4c-0.2,0-0.4,0.2-0.4,0.4l0,0L56.9,91.8z"/>
<path d="M60.3,86.5c0.6,2-0.1,4.2,0.7,6.1c0.2,0.6,0.7,1.1,1.3,1.4c0.8,0.2,1.3-0.6,1.6-1.2c0.2-0.4-0.4-0.8-0.7-0.4s-0.5,1.1-1,0.7
	c-0.4-0.4-0.7-0.9-0.8-1.5c-0.4-1.8,0.1-3.6-0.4-5.4C61,86.1,60.8,86,60.6,86S60.3,86.3,60.3,86.5L60.3,86.5z"/>
<path d="M59.7,90.8c1,0.1,2-0.3,3-0.2c0.2,0,0.3-0.2,0.3-0.4c0-0.2-0.2-0.3-0.3-0.3c-1-0.1-2,0.3-3,0.2c-0.2,0-0.4,0.1-0.4,0.3
	c0,0.2,0.1,0.4,0.3,0.4C59.6,90.8,59.6,90.8,59.7,90.8z"/>
<path d="M66.4,89.5c-0.7-0.2-1.4,0.1-1.9,0.6c-0.4,0.5-0.6,1.2-0.5,1.9c0.1,0.7,0.7,1.2,1.4,1.3c0.8,0,1.4-0.5,1.6-1.2
	c0.2-0.8,0.2-1.6,0-2.4c-0.1-0.2-0.3-0.3-0.5-0.2c-0.2,0.1-0.3,0.2-0.2,0.4c0.2,1.1,0.5,2.3,0.9,3.4c0.1,0.2,0.3,0.3,0.5,0.3
	c0,0,0,0,0,0c0.2-0.1,0.3-0.3,0.3-0.5c-0.4-1.1-0.7-2.2-0.8-3.4l-0.7,0.2c0,0.1,0.1,0.2,0.1,0.4c0,0,0,0.1,0,0.1c0,0,0,0,0,0.1
	c0,0,0-0.1,0,0v0.2c0,0.2,0,0.3,0,0.5c0,0.1,0,0.2,0,0.2c0,0,0,0.1,0,0.1s0,0,0,0s0,0.1,0,0.1c0,0.1-0.1,0.3-0.1,0.4V92l0,0
	c0,0,0-0.1,0,0l-0.1,0.2c0,0,0,0.1,0,0.1l0,0c0,0,0,0-0.1,0.1c0,0-0.1,0.1,0,0.1l0,0H66c0,0,0.1,0,0,0l0,0h-0.1l0,0h-0.3
	c0.1,0,0,0-0.1,0c-0.1,0-0.1,0-0.2-0.1l0,0h-0.1c0,0-0.1-0.1,0,0h-0.1l-0.1-0.1l0,0l0,0v-0.1c0,0,0-0.1,0-0.1c0,0.1,0,0,0,0
	s0-0.1,0-0.2s0-0.1,0-0.1s0,0,0,0c0-0.1,0-0.1,0-0.2c0,0,0-0.1,0-0.1s0-0.1,0,0c0-0.1,0-0.2,0.1-0.4v-0.1l0,0l0.1-0.2l0.1-0.1l0,0
	c0-0.1,0,0,0,0l0.1-0.2l0.1-0.1c0.1-0.1,0,0,0,0l0.2-0.1l0,0h0.1H66h0h0.1c0.5,0.1,0.7-0.6,0.2-0.7L66.4,89.5z"/>
<path d="M67.6,85.1c0.4,1.2,0.7,2.4,0.9,3.6c0.1,0.8,0.1,1.7,0.1,2.5c-0.1,0.7,0,1.3,0.3,1.9c0.3,0.6,1,0.8,1.6,0.6
	c0.2-0.1,0.3-0.3,0.2-0.5c-0.1-0.2-0.2-0.3-0.4-0.2c-1.2,0.3-0.9-1.8-0.9-2.4c0-1.9-0.4-3.8-1-5.6C68.2,84.4,67.5,84.6,67.6,85.1
	L67.6,85.1z"/>
<path d="M67.8,91.1c1.2,0.2,2.2-0.5,3.4-0.5c0.5,0,0.5-0.8,0-0.8c-1.2,0-2.2,0.7-3.4,0.5c-0.2,0-0.4,0.2-0.4,0.4
	C67.4,90.9,67.6,91.1,67.8,91.1z"/>
<path d="M71.3,90.4c0,0.7,0.1,1.3,0.3,1.9c0.2,0.6,0.6,1.4,1.3,1.6c0.3,0.1,0.6,0,0.9-0.1c0.2-0.2,0.4-0.4,0.5-0.7
	c0.2-0.6,0.3-1.3,0.2-2c0-0.4,0-0.9-0.1-1.3s-0.8-0.5-0.8,0c0,0.3,0,0.6,0.1,0.9s0,0.6,0,0.9v0.5c0,0,0,0.2,0,0.1c0,0.1,0,0.2,0,0.3
	c0,0.1-0.1,0.3-0.1,0.4l-0.1,0.1c0-0.1,0,0,0,0c0,0,0,0.1,0,0.1V93c-0.1,0.1,0,0,0,0l0,0c0,0,0.1,0,0,0s-0.1,0.1,0,0h-0.1
	c-0.1,0,0,0,0,0h-0.2c0.1,0,0,0,0,0h-0.1c0.1,0,0,0,0,0C73.3,93,73.1,93,73,93l0,0l-0.1-0.1c-0.1-0.1-0.1-0.2-0.2-0.3
	c-0.1-0.1-0.2-0.3-0.2-0.4c-0.1-0.3-0.2-0.7-0.3-1c0-0.1,0-0.1,0-0.2c0,0,0-0.1,0,0s0-0.1,0-0.1c0-0.1,0-0.3,0-0.4
	c0-0.5-0.7-0.5-0.8,0L71.3,90.4z"/>
<path d="M74.6,89.6c0.7,0.8,1.1,1.9,1.1,3l0.7-0.1c-0.1-0.3-0.1-0.7-0.1-1c0-0.2,0-0.3,0-0.5c0,0.1,0,0,0,0c0,0,0-0.1,0-0.1l0.1-0.2
	c0,0,0-0.1,0-0.1l0,0l0,0c0-0.1,0.1-0.1,0.1-0.2l0.1-0.1c0,0.1,0,0,0,0c0-0.1,0.1-0.1,0.2-0.2L77,90l0.2-0.1l0.2-0.1
	c0.1,0,0.2-0.1,0.3-0.1c0.2-0.1,0.3-0.3,0.3-0.5c-0.1-0.2-0.3-0.3-0.5-0.3c-0.8,0.1-1.5,0.7-1.8,1.4c-0.2,0.7-0.2,1.5,0,2.3
	c0,0.2,0.2,0.3,0.4,0.3c0.2,0,0.3-0.2,0.3-0.4c0.1-1.3-0.4-2.6-1.3-3.5c-0.1-0.1-0.4-0.1-0.5,0S74.5,89.5,74.6,89.6L74.6,89.6z"/>
<path d="M79.4,89.1c-1.5,0.2-2.1,2-1.7,3.3c0.2,0.7,0.9,1.1,1.6,1c0.8-0.1,1.2-0.9,1.4-1.6c0.2-0.8,0.3-1.7,0.3-2.5
	c0-0.2-0.2-0.3-0.4-0.3c-0.2,0-0.3,0.2-0.3,0.3c0.1,1.4,0.3,2.7,0.7,4c0.1,0.2,0.3,0.3,0.5,0.2c0.2-0.1,0.3-0.2,0.2-0.4
	c-0.3-1.2-0.6-2.5-0.7-3.8h-0.8c0,0.6,0,1.2-0.1,1.8c0,0.2-0.1,0.3-0.1,0.5c0,0.1-0.1,0.3-0.2,0.4c-0.1,0.1-0.1,0.2-0.2,0.4
	c-0.1,0.1-0.1,0.2-0.2,0.2h-0.1c-0.1,0.1,0,0,0,0h-0.1H79c-0.1,0,0.1,0,0,0h-0.1c-0.1,0,0,0,0,0h-0.1h-0.1c-0.1,0,0.1,0,0,0
	c0,0-0.1-0.1-0.1-0.1l-0.1-0.1c0,0,0-0.1,0-0.1c0-0.1,0,0.1,0,0c0-0.1,0-0.1-0.1-0.2c0-0.1,0-0.1,0-0.2c0-0.1,0,0,0,0
	c0,0,0-0.1,0-0.1c0-0.1,0-0.3,0-0.4c0,0,0-0.1,0,0c0,0,0,0,0-0.1c0-0.1,0-0.2,0-0.2c0-0.1,0.1-0.3,0.1-0.4c0.1-0.1,0.1-0.2,0.2-0.3
	c0-0.1,0.1-0.1,0.2-0.1c0,0-0.1,0,0,0l0.1-0.1c0.1,0,0.2-0.1,0.3-0.1c0.2,0,0.3-0.2,0.3-0.4C79.8,89.4,79.7,89.2,79.4,89.1
	L79.4,89.1z"/>
<path d="M88.6,92.1c-0.6,0.1-1.3,0-1.9-0.2c-0.5-0.3-0.8-1-0.6-1.6c0.1-0.7,0.3-1.4,0.7-2.1c0.3-0.6,0.6-1.2,1.1-1.6l-0.5,0.1
	c0.2,0.1,0.3,0.3,0.3,0.5c0.2,0.4,0.9,0.3,0.7-0.2c-0.1-0.4-0.3-0.7-0.7-0.9c-0.1-0.1-0.3-0.1-0.4,0.1c-0.4,0.4-0.7,0.9-1,1.4
	c-0.3,0.6-0.6,1.3-0.8,2c-0.3,1.2-0.2,2.7,1.1,3.2c0.7,0.2,1.3,0.2,2,0.2c0.2,0,0.3-0.2,0.3-0.4C88.8,92.3,88.7,92.1,88.6,92.1
	L88.6,92.1z"/>
<path d="M94.7,91.3c-0.1-1-0.2-1.9-0.2-2.9l-0.7,0.1c0.2,0.7,0.1,1.5,0.3,2.2c0,0.2,0.2,0.3,0.4,0.3c0.1,0,0.2-0.1,0.3-0.3
	c0.2-0.8,0.7-1.5,1.4-2h-0.4c0.6,0.4,0.8,1.1,0.7,1.8h0.8c0-0.8,0.3-1.5,0.8-2l-0.5-0.1c0.6,0.8,0.9,1.8,1,2.8c0,0.5,0.8,0.5,0.8,0
	c0-1.1-0.4-2.2-1-3.2c-0.1-0.2-0.3-0.2-0.5-0.1c-0.8,0.6-1.3,1.6-1.2,2.7c0,0.2,0.1,0.4,0.3,0.4c0.2,0,0.4-0.1,0.4-0.3
	c0,0,0-0.1,0-0.1c0.1-1-0.3-1.9-1.1-2.5c-0.1-0.1-0.3-0.1-0.4,0c-0.9,0.6-1.5,1.4-1.7,2.4h0.7c-0.2-0.7-0.1-1.5-0.3-2.2
	c-0.1-0.2-0.3-0.3-0.5-0.2c-0.1,0-0.3,0.2-0.3,0.3c0,1,0,2.1,0.1,3.1C94.1,92,94.8,91.8,94.7,91.3L94.7,91.3z"/>
<path d="M101.2,93.5c1.1-2.4,0.7-5.3-0.9-7.4c-0.2-0.3-0.6,0-0.6,0.3c0,0.3,0,0.7,0.2,1c0.1,0.2,0.3,0.3,0.5,0.3s0.3-0.3,0.3-0.5
	l0,0c-0.1-0.2-0.1-0.5-0.1-0.8l-0.6,0.3c1.4,1.9,1.7,4.3,0.8,6.5C100.4,93.6,101,94,101.2,93.5L101.2,93.5z"/>
<path d="M104,89.5c0.2,0,0.3-0.2,0.3-0.4c0-0.2-0.2-0.3-0.3-0.3c-0.2,0-0.3,0.2-0.3,0.4C103.7,89.4,103.8,89.5,104,89.5z"/>
<line class="st0" x1="29.8" y1="52.7" x2="95.8" y2="53.3"/>
<line class="st0" x1="95.7" y1="65.2" x2="95.5" y2="53.4"/>
<line class="st0" x1="30.6" y1="65.4" x2="95.7" y2="65.4"/>
<line class="st0" x1="30.7" y1="12.3" x2="65.3" y2="12.8"/>
<line class="st0" x1="65.2" y1="24.8" x2="65.2" y2="13"/>
<line class="st0" x1="31.2" y1="25" x2="65.2" y2="25"/>
<path class="st1" d="M31.4,23.8c-0.3-0.2,0.5,0.4,0.6,0.5c0.3,0.2,0.6,0.4,1,0.5c0.9,0.3,1.8-0.1,2.2-0.9c0.6-1.5-0.8-2.6-1.4-3.9
	l-1.3,2.3c0.5,0,1.5,1.2,1.9,1.5c0.7,0.4,1.6,0.2,2.1-0.6c0.1-0.1,0.1-0.2,0.1-0.3c0.1-1-0.1-2.1-0.8-2.9c-0.5-0.7-1.4-1.5-1.6-2.4
	l-2.2,1.7c0.8,0.6,1.5,1.3,2,2.2c0.8,0.9,1.6,1.7,2.5,2.4c0.6,0.6,1.6,0.5,2.1-0.1c0.3-0.3,0.4-0.6,0.4-1c0-3.3-4.2-4.7-5-7.7
	L32,16.8c1.3,1.1,2.5,2.2,3.6,3.5c1.2,1.1,2.6,2.2,4,3c1,0.6,2.7-0.4,2.2-1.7c-0.7-1.4-1.6-2.6-2.9-3.6c-1.3-1.2-2.5-2.6-3.6-4.1
	L33,15.8c3,2.4,5.2,5.9,8.8,7.7c0.7,0.4,1.6,0.1,2-0.6c0.3-0.6,0.2-1.3-0.2-1.7c-1.1-1.3-2.2-2.6-3.2-4c-1-1.2-1.9-2.4-2.7-3.7l-2,2
	c0.8,0.6,1.5,1.3,2,2.1c0.9,1.1,1.8,2.1,2.8,3c0.9,0.8,1.9,1.6,3,2.3c0.9,0.7,1.8,1.3,2.9,1.8c0.8,0.2,1.6-0.3,1.8-1.1
	c0.1-0.5,0-1-0.4-1.4c-1.4-1.4-2.7-2.9-4-4.5c-0.9-1.1-2.2-2.1-2.8-3.4l-2.5,1.5c3.3,3,6.1,6.6,10,9c1,0.6,2.7-0.5,2.2-1.7
	c-0.8-2-2.7-3.6-4.1-5.1c-0.7-0.7-1.3-1.5-2-2.2c-0.7-0.5-1.2-1.2-1.4-2l-2.5,1.5c3.2,3.6,6.9,6.8,10.9,9.6c0.7,0.4,1.7,0.2,2.1-0.6
	c0.1-0.1,0.1-0.2,0.1-0.3c0.4-1.9-1.8-3.6-2.9-4.9c-1.6-1.8-3.7-3.4-5-5.5l-2.4,1.9c2.1,2.3,4.2,4.6,6.5,6.6c1.3,1.1,2.9,3.1,4.8,3
	c0.8,0,1.5-0.7,1.5-1.5c0-0.3-0.1-0.5-0.2-0.7c-1.1-1.5-2.4-3-3.8-4.3c-1.4-1.3-2.6-2.8-3.7-4.4L47,16.2c1.2,0.4,2.2,2,3.1,2.9
	s1.9,1.8,2.8,2.7c1.3,1.4,2.4,3.2,4.4,3.5c0.8,0,1.5-0.7,1.5-1.5c0-0.3-0.1-0.5-0.2-0.8c-2.3-3.3-5.4-5.8-7.5-9.2l-2.4,1.8
	c3,3,5.7,6.3,9,8.9c0.6,0.6,1.6,0.5,2.1-0.1c0.4-0.5,0.5-1.2,0.2-1.7c-1.6-3.4-4.7-5.5-6.6-8.6l-1.7,2.2c0.8,0.1,1.8,1.4,2.3,2
	c0.9,0.8,1.7,1.6,2.4,2.5c1.1,1.4,2.2,3,4,3.5c0.8,0.2,1.6-0.3,1.8-1.1c0.1-0.2,0.1-0.5,0-0.8c-0.5-1.8-2.1-3.3-3.2-4.6
	c-1-1.1-2.5-2.3-2.9-3.8l-2.5,1.5c2.8,2.6,4.9,5.8,7.8,8.3c0.6,0.6,1.5,0.6,2.1,0c0.4-0.4,0.6-1,0.4-1.5c-0.2-0.6-0.5-1.2-1-1.8
	c-0.5-0.7-0.9-1.4-1.3-2.1c-0.9-1.3-2.1-2.5-2.6-4L56.5,16c2,2,3,4.8,5.5,6.4c0.7,0.4,1.7,0.1,2.1-0.6c0.1-0.2,0.2-0.5,0.2-0.7
	c0-1.2-0.5-2.3-1.3-3.1c-0.9-1-1.6-2.1-2.2-3.3l-1.7,2.2c0.4,0.5,0.7,1,1,1.5c0.4,0.7,1,1.2,1.7,1.6c1.1,0.6,2.6-0.4,2.2-1.7
	c-0.5-1.5-1.8-2.6-2.3-4.1l-2.2,1.7c0.7,0.5,1.1,1.6,1.6,2.3c0.4,0.7,1.4,0.9,2.1,0.5c0.7-0.4,0.9-1.3,0.5-2
	c-0.4-0.8-0.7-1.7-1.1-2.5l-2.3,1.8c0.6,0.6,1.1,1.3,1.7,1.9c0.6,0.6,1.6,0.6,2.1,0c0.3-0.3,0.4-0.6,0.4-1c-0.2-1-0.6-1.9-1-2.8
	l-2.8,1.1c0.4,0.7,1,1.4,1.6,2c1,1,3.1,0,2.5-1.5c-0.2-0.6-0.6-1.1-1-1.6c-1.3-1.4-3.4,0.7-2.1,2.1l0.2,0.2l2.5-1.5
	c-0.4-0.4-0.8-0.9-1.1-1.4c-0.9-1.4-3.3-0.5-2.8,1.2c0.4,0.6,0.6,1.3,0.9,2l2.6-1.1c-0.6-0.6-1.1-1.3-1.7-1.9
	c-1.2-1.3-3.1,0.4-2.4,1.8c0.4,0.8,0.8,1.6,1.1,2.5l2.6-1.5c-0.9-1.2-1.5-2.5-2.7-3.4c-0.7-0.4-1.7-0.1-2.1,0.6
	c-0.2,0.3-0.2,0.7-0.1,1c0.5,1.5,1.8,2.6,2.3,4.1l2.2-1.7c-0.7-0.4-1-1.2-1.4-1.8c-0.5-0.7-1.2-1.3-2-1.7c-1.3-0.6-2.2,1.2-1.7,2.2
	c0.5,1,1.1,2,1.8,2.8c0.4,0.5,1.3,1.4,1.3,2l2.3-1.3c-2.2-1.3-3.1-4.2-4.9-5.9c-0.6-0.6-1.6-0.6-2.1,0c-0.4,0.4-0.5,0.9-0.4,1.4
	c0.6,1.5,1.4,2.8,2.5,4c0.5,0.7,1,1.5,1.4,2.2c0.3,0.5,1,1.1,1.1,1.6l2.5-1.5c-2.9-2.5-5-5.7-7.8-8.3c-0.6-0.6-1.6-0.6-2.1,0
	c-0.4,0.4-0.5,0.9-0.4,1.4c0.6,1.5,1.5,2.8,2.7,3.9c0.6,0.7,1.2,1.4,1.8,2.1c0.7,0.7,1.3,1.5,1.7,2.4l1.8-1.9
	c-0.7-0.2-1.2-1-1.7-1.5c-0.6-0.7-1.1-1.4-1.8-2.1C57,16.8,56,15.9,55,15c-0.6-0.8-1.5-1.3-2.5-1.6c-1.2-0.2-2.5,1-1.7,2.2
	c1.9,3.1,5,5.3,6.6,8.6l2.4-1.8c-3.3-2.6-6-5.9-9-8.9c-1.2-1.2-3.3,0.4-2.3,1.8c2.1,3.4,5.2,5.9,7.5,9.2l1.3-2.3
	c0.3,0,0.1,0.1,0-0.1s-0.3-0.3-0.5-0.4c-0.3-0.3-0.6-0.7-0.9-1c-0.6-0.7-1.3-1.4-2-2.1c-1-1-2-2-3-3c-0.8-1-1.9-1.8-3.1-2.3
	c-0.8-0.2-1.6,0.3-1.8,1.1c-0.1,0.4,0,0.8,0.1,1.1c2,3.3,5.3,5.6,7.5,8.7l1.4-2.2c0.2,0-0.3-0.2-0.5-0.3c-0.3-0.2-0.7-0.5-1-0.8
	c-0.7-0.6-1.4-1.2-2.1-1.8c-2-1.8-3.8-3.9-5.6-5.9c-0.6-0.5-1.6-0.5-2.1,0.2c-0.4,0.5-0.5,1.1-0.2,1.6c1.2,1.6,2.5,3.2,4,4.6
	c0.7,0.8,1.5,1.6,2.2,2.4l0.9,1c0.1,0.1,0.3,0.3,0.4,0.4c0.2,0.3,0.2,0.2,0-0.4l2.2-0.9c-3.8-2.6-7.3-5.7-10.3-9.1
	c-1.1-1.2-2.7,0.1-2.5,1.5c0.3,1.7,1.9,3,3,4.2c0.8,0.9,1.6,1.8,2.5,2.7c0.8,0.7,1.5,1.5,2,2.4l2.3-1.7c-3.6-2.3-6.3-5.6-9.4-8.5
	c-1-0.9-3.1,0-2.5,1.5c0.8,1.6,1.9,3,3.2,4.3c1.5,1.7,2.9,3.4,4.4,4.9l1.5-2.5c-0.9-0.4-1.8-1-2.5-1.7c-1.1-0.7-2.1-1.5-3-2.5
	c-1.4-1.5-2.7-3.8-4.5-4.7c-0.7-0.4-1.6-0.1-2.1,0.6c-0.3,0.5-0.2,1,0,1.5c0.9,1.4,1.8,2.7,2.9,4c1.1,1.5,2.2,2.9,3.4,4.2l1.8-2.4
	c-3.3-1.7-5.3-5-8.2-7.3c-1.2-1-3.5,0.3-2.4,1.8c1,1.4,2.1,2.7,3.3,4c0.9,0.9,2.3,1.7,2.8,2.9l2.2-1.7c-1.5-0.9-2.8-1.9-4-3.1
	c-1.1-1.2-2.3-2.4-3.6-3.4c-1.1-0.8-2.5,0.5-2.2,1.7c0.6,1.5,1.5,2.9,2.6,4c0.6,0.7,2.3,1.9,2.3,2.9l2.6-1.1c-1-0.8-1.9-1.7-2.7-2.6
	c-0.6-0.9-1.5-1.7-2.4-2.4c-0.7-0.4-1.7-0.1-2.1,0.6c-0.2,0.3-0.2,0.7-0.1,1.1c0.2,0.8,0.6,1.5,1.1,2.1c0.2,0.3,0.5,0.6,0.7,0.9
	s0.4,1,0.5,0.6l2.2-0.9c-1.2-0.8-1.9-1.8-3.4-1.9c-1.3-0.1-1.7,1.3-1.3,2.3c0.2,0.3,0.4,0.7,0.6,1c0.1,0.2,0.3,0.4,0.4,0.7
	c0.4,0.4-0.5,0.3,0.2-0.5l0.9-0.7c0.6-0.2,0.7,0.1,0.1-0.3l-0.5-0.4C31.4,20,29.9,22.6,31.4,23.8L31.4,23.8z"/>
<path class="st2" d="M30.8,63.9c1,0.6,1.7,1.5,2.9,1.9c0.8,0.2,1.6-0.3,1.9-1.1c0-0.1,0-0.2,0-0.4c0.2-2.2-2.1-3.2-2.7-5.1L30.7,61
	c1.9,1.2,3.2,3,5.4,3.8c1.4,0.5,2.2-1.1,1.7-2.2c-0.5-1.1-1.3-2-2.2-2.8c-0.9-0.7-1.7-1.5-2.3-2.5l-1.9,1.8c1.7,0.8,3.2,1.9,4.5,3.1
	c1.4,1.2,3,2.3,4.8,3c1.1,0.4,2.1-0.8,1.8-1.8c-0.6-1.5-1.6-2.9-3-3.8c-1.5-1.1-2.9-2.4-4.1-3.9l-1.7,2.2c0.9,0.1,1.9,1.3,2.5,1.8
	c0.9,0.7,1.8,1.4,2.7,2c1.9,1.3,3.9,2.4,6,3.4c0.7,0.4,1.6,0.2,2-0.6c0.3-0.6,0.2-1.3-0.2-1.8c-0.6-0.7-1.3-1.3-2-1.9
	c-0.8-0.8-1.5-1.6-2.3-2.4c-1.2-1.2-2.8-2.3-3.6-3.8l-1.7,2.2c0.5,0.2,1,0.6,1.3,1c0.5,0.4,1,0.8,1.5,1.2c1.2,0.9,2.4,1.7,3.6,2.6
	s2.2,1.4,3.4,2.1c1.1,0.8,2.2,1.4,3.4,1.8c1,0.3,2.3-0.8,1.8-1.8c-0.8-2.1-3-3.5-4.7-4.9c-1.9-1.6-4.1-2.9-5.7-4.7l-1.8,2.4
	c2.5,1.7,4.8,3.5,7.4,5.1c2.3,1.5,4.9,2.4,7.1,4c1.2,0.9,2.9-0.9,2-2c-1.4-1.9-3-3.7-4.8-5.3c-1.4-1.3-3.4-2.5-4.2-4.3l-2,2.2
	c1,0.6,1.9,1.4,2.7,2.2c1,0.8,2,1.6,3,2.3c2.1,1.6,4.2,3.1,6.4,4.5c0.7,0.4,1.6,0.1,2-0.6c0.2-0.5,0.2-1,0-1.5c-0.4-0.8-1-1.4-1.7-2
	c-0.8-0.7-1.5-1.3-2.2-2c-1.7-1.6-3.6-3.1-5.1-4.9l-2.1,2.1c1.7,1.4,3.5,2.7,5.3,4s3.5,2.7,5.4,3.8c0.7,0.4,1.6,0.1,2-0.6
	c0.4-0.7,0.1-1.6-0.5-2c-1.8-1-3.4-2.3-5-3.5s-3.4-2.5-5-3.8c-0.6-0.6-1.6-0.5-2.1,0.1c-0.5,0.6-0.5,1.5,0,2c1.5,1.7,3.2,3,4.8,4.5
	c0.7,0.7,1.5,1.4,2.2,2.1c0.6,0.4,1.2,0.9,1.6,1.6l2.1-2c-2.2-1.4-4.4-2.9-6.4-4.5c-2-1.4-3.6-3.3-5.7-4.5c-1.4-0.8-2.6,0.7-2,2.1
	c0.8,1.9,2.6,3,4.1,4.4c1.9,1.6,3.5,3.3,5,5.2l1.9-2.1c-2.2-1.6-4.8-2.6-7.1-4c-2.5-1.6-4.9-3.4-7.4-5.1c-1.5-1-2.9,1.2-1.8,2.4
	c1.6,1.5,3.2,2.9,5,4.1c0.8,0.7,1.7,1.4,2.5,2.1c0.6,0.6,1.8,1.3,2.1,2.1l1.8-1.8c-1.2-0.5-2.3-1.1-3.3-1.9
	c-1.2-0.7-2.4-1.5-3.6-2.3S42.1,56.9,41,56c-0.8-0.9-1.8-1.5-2.9-2c-0.8-0.2-1.6,0.3-1.8,1.1c-0.1,0.4,0,0.8,0.1,1.1
	c0.9,1.7,2.4,2.7,3.7,4.1c0.8,0.8,1.5,1.6,2.3,2.4c0.8,0.7,1.6,1.4,2.3,2.2l1.8-2.4c-2.2-1-4.4-2.2-6.4-3.7c-1-0.7-1.9-1.5-2.9-2.2
	c-0.7-0.7-1.6-1.3-2.6-1.6c-1.1-0.2-2.6,1-1.7,2.2c1.1,1.5,2.4,2.8,3.8,3.9c1,0.8,2.7,1.8,3,3.1l1.8-1.8c-3.5-1.4-5.8-4.7-9.3-6.1
	c-0.8-0.2-1.6,0.3-1.8,1.1c-0.1,0.3-0.1,0.5,0,0.8c0.5,1.2,1.3,2.3,2.3,3.2c1,0.8,1.9,1.7,2.5,2.8l1.7-2.2c-1.8-0.6-3.1-2.4-4.7-3.5
	c-0.7-0.4-1.6-0.2-2.1,0.6c-0.2,0.3-0.3,0.8-0.1,1.1c0.3,0.9,0.8,1.7,1.4,2.4c0.4,0.5,1.2,1.2,1.2,1.9l1.9-1.4
	c-0.8-0.3-1.5-1.1-2.2-1.6c-0.7-0.4-1.6-0.1-2,0.6C29.9,62.6,30.1,63.5,30.8,63.9L30.8,63.9z"/>
<path class="st2" d="M60.6,60.5c-2.1-2.2-4.4-4.1-6.5-6.4l-1.8,2.4c1,0.7,1.9,1.4,2.8,2.2c1.1,0.8,2.2,1.6,3.3,2.3
	c1,0.6,2,1.3,2.9,2c0.9,0.8,2,1.6,3.1,2.2c0.7,0.4,1.6,0.1,2.1-0.6c0.3-0.5,0.3-1,0-1.5c-0.5-0.9-1.2-1.7-2-2.4
	c-0.8-0.8-1.6-1.7-2.5-2.5c-0.6-0.7-1.3-1.3-2-1.9c-0.7-0.5-1.3-1.1-1.7-1.8l-1,1.8c-0.3,0.1-0.4-0.1-0.2,0.1
	c0.2,0.2,0.5,0.3,0.7,0.5c0.3,0.2,0.6,0.5,0.9,0.8c1.1,0.9,2.3,1.7,3.5,2.6c1.9,1.4,3.5,4,6,4.2c0.8,0,1.5-0.7,1.5-1.5
	c0-0.1,0-0.3-0.1-0.4c-0.6-1.6-2.1-2.6-3.2-3.8c-1.3-1.4-2.7-2.8-3.9-4.4l-1.1,2.6c-0.2,0,0.1,0,0.2,0.1s0.3,0.2,0.5,0.3
	c0.4,0.3,0.8,0.6,1.2,1c0.8,0.8,1.7,1.5,2.5,2.3c1,1,2.1,1.8,3.3,2.5c0.4,0.3,0.9,0.5,1.4,0.7l0.6,0.3c0.2,0.1,0.6,0.5,0.3,0.1
	c1.3,1.5,3.4-0.7,2.1-2.1c-0.8-0.6-1.6-1.1-2.6-1.4c-1.3-0.8-2.6-1.8-3.7-2.9c-0.9-0.8-1.7-1.6-2.6-2.4c-0.8-0.9-2-1.5-3.2-1.6
	c-0.8,0-1.5,0.7-1.5,1.6c0,0.4,0.2,0.7,0.4,1c1.1,1.3,2.3,2.6,3.4,3.8c0.6,0.6,1.2,1.2,1.8,1.8c0.4,0.4,1,0.8,1.3,1.3l1.4-1.9
	c-0.6-0.1-1.9-1.5-2.4-2.1c-1.1-1-2.3-1.9-3.5-2.8c-0.9-0.7-1.8-1.4-2.7-2.1s-2-1.4-3.1-1.1c-0.8,0.2-1.3,1.1-1,1.8
	c0.7,1.9,2.3,2.9,3.6,4.2c0.8,0.8,1.6,1.7,2.5,2.5c0.9,0.7,1.6,1.6,2.3,2.6l2.1-2c-1-0.5-2-1.2-2.8-2c-1-0.8-2.1-1.5-3.2-2.2
	c-1.1-0.7-2.1-1.4-3.1-2.2c-0.9-0.9-1.9-1.6-3-2.3c-0.7-0.4-1.7-0.1-2,0.6c-0.3,0.6-0.2,1.2,0.2,1.7c2.1,2.2,4.4,4.2,6.5,6.4
	C59.8,64,61.9,61.9,60.6,60.5L60.6,60.5z"/>
<path class="st2" d="M67.5,60.7c-0.8,0.4-1.2,0-0.4,0.3c0.3,0.1,0.5,0.2,0.7,0.3c0.5,0.3,1.1,0.5,1.6,0.8c1.6,0.9,2.7,2.2,4.3,3.2
	c0.7,0.4,1.7,0.2,2.1-0.5c0.1-0.2,0.2-0.5,0.2-0.8c0.2-1.7-1.7-3.2-2.8-4.3c-1.3-1.2-3.4-2.5-3.9-4.2l-1.8,1.8
	c0.9,0.3,1.7,0.8,2.4,1.4c1,0.7,2,1.3,3,2c1.8,1.5,3.7,2.8,5.7,4c1.2,0.6,3-0.8,2-2c-1.3-1.7-3.3-3.1-5-4.5
	c-1.9-1.7-3.9-3.3-5.9-4.8l-1.2,2.7c1.2,0.6,2.3,1.3,3.3,2.2c1.3,0.9,2.5,1.8,3.8,2.8c2.2,1.6,4.4,3.7,7.1,4.3
	c0.8,0.2,1.6-0.3,1.9-1.1c0-0.1,0-0.2,0-0.3c0-0.9-0.4-1.8-1.1-2.3c-0.8-0.8-1.6-1.6-2.4-2.4c-1.7-1.7-3.6-3.1-5.2-4.8l-1.5,2.5
	c0.9,0.5,1.8,1.1,2.5,1.8c1,0.8,2.1,1.7,3.2,2.6c2,1.6,4.1,2.9,6.2,4.4c1.2,0.9,2.9-0.9,2.1-2c-2.4-3.4-6.2-5.5-8.5-8.9l-2.1,2
	c1.8,1.3,3.2,2.9,4.9,4.3s3.7,2.7,5.5,4c1.3,0.9,2.8-0.8,2-2c-2-3.3-5.1-5.7-7.3-8.8l-2.1,2.1c0.7,0.5,1.3,1.1,1.9,1.8
	c0.8,0.8,1.6,1.6,2.5,2.3c1.8,1.5,3.6,2.9,5.4,4.3c0.6,0.6,1.6,0.5,2.1-0.1c0.4-0.5,0.5-1.2,0.2-1.7c-0.9-1.5-2-3-3.2-4.3
	c-0.3-0.4-0.7-0.8-1.1-1.3c-0.2-0.2-0.4-0.4-0.6-0.6c-0.1-0.1-0.2-0.2-0.2-0.3c-0.1-0.3-0.2-0.3-0.1,0.1l-1.8,1
	c1.3,0.5,2.2,2.3,3,3.3c0.9,1.3,2.1,2.5,3.4,3.4c0.7,0.4,1.7,0.1,2.1-0.6c0.2-0.3,0.2-0.7,0.1-1.1c-0.5-1.9-1.9-3.2-3.2-4.6
	c-0.5-0.5-0.9-1-1.4-1.5c-0.3-0.3-0.6-0.6-0.9-0.9s-0.4-0.8-0.4-0.4l-2.2,1.3c2.4,1.2,3.6,3.9,5.8,5.4c1.3,0.8,2.8-0.8,2-2
	c-1.2-2.1-2.8-3.9-4-6l-2,2.1c0.8,0.7,1.4,1.5,1.8,2.5c0.5,1,1.3,1.8,2.2,2.4c0.7,0.4,1.6,0.2,2.1-0.5c0.1-0.1,0.1-0.2,0.1-0.3
	c0.4-2.1-1.4-3.5-2.3-5.2l-2.4,1.8c0.9,0.9,1.5,2.1,2.4,3.1c1,1.2,2.8-0.1,2.5-1.5c-0.2-0.8-0.5-1.5-0.9-2.2l-2.2,1.7l0.2,0.2
	c1.1,1.5,3.7,0,2.6-1.5c-0.3-0.5-0.8-0.9-1.3-1.2c-1-0.6-2.7,0.5-2.2,1.7c0.4,0.7,0.6,1.5,0.9,2.2l2.5-1.5c-0.9-1-1.5-2.2-2.4-3.1
	c-0.6-0.6-1.5-0.6-2.1,0c-0.5,0.5-0.6,1.2-0.2,1.8c0.3,0.5,0.7,1,1.1,1.5c0.2,0.3,0.4,0.6,0.6,0.9s0.2,0.8,0.3,0.4l2.2-0.9
	c-0.8-0.7-1.4-1.5-1.9-2.4c-0.6-1-1.3-1.8-2.3-2.5c-1.3-0.9-2.8,0.8-2,2c1.2,2.1,2.8,3.9,4.1,5.9l2-2c-2.2-1.5-3.3-4.1-5.8-5.4
	c-0.7-0.4-1.7-0.1-2.1,0.6c-0.1,0.2-0.2,0.5-0.2,0.7c0.1,1.7,1.5,2.8,2.6,3.9s2.9,2.6,3.4,4.3l2.2-1.7c-2.9-1.8-3.8-5.7-7.1-7
	c-0.8-0.2-1.6,0.2-1.8,1c-0.4,1.7,0.8,2.9,1.9,4c1.4,1.4,2.6,3,3.6,4.8l2.3-1.8c-1.9-1.5-3.8-3.1-5.7-4.6c-1.6-1.2-2.8-3-4.6-4.2
	c-1.2-0.8-2.9,0.8-2.1,2.1c2.2,3.2,5.3,5.5,7.3,8.8l2-2c-1.9-1.2-3.8-2.6-5.5-4c-1.6-1.4-3.1-2.9-4.9-4.2c-1.2-0.9-2.9,0.8-2,2
	c2.4,3.4,6.1,5.5,8.5,8.9l2-2c-2.2-1.6-4.5-3.1-6.7-4.9c-1-0.9-2.1-1.7-3.2-2.6c-0.8-0.7-1.7-1.3-2.7-1.7c-0.8-0.2-1.6,0.3-1.8,1.1
	c-0.1,0.5,0,1,0.4,1.4c1.3,1.4,2.8,2.5,4.2,3.8c0.7,0.7,1.3,1.3,2,2c0.2,0.2,1.6,1.4,1.6,1.7l1.9-1.5c-2.7-0.6-5-2.9-7.1-4.5
	s-4.5-3.8-7-4.8c-1.7-0.7-2.4,1.8-1.2,2.7c1.8,1.3,3.6,2.8,5.3,4.3c0.8,0.7,1.6,1.4,2.4,2.1c0.8,0.5,1.5,1,2.1,1.7l2-2
	c-2.1-1.3-4.2-2.7-6.1-4.2C72.9,57.2,72,56.6,71,56c-0.8-0.7-1.8-1.2-2.8-1.5c-0.8-0.2-1.6,0.3-1.8,1.1c-0.1,0.3-0.1,0.5,0,0.8
	c0.6,2,2.2,3.4,3.8,4.7c0.7,0.6,2.9,2.2,2.8,3l2.3-1.3c-1.8-1-3.1-2.6-4.9-3.5c-1.2-0.6-2.9-1.8-4.3-1.1
	C64.3,59.1,65.8,61.7,67.5,60.7L67.5,60.7z"/>
<line class="st0" x1="182.6" y1="0" x2="182.4" y2="83.1"/>
<line class="st0" x1="272.1" y1="82.4" x2="182.4" y2="83.1"/>
<path d="M207.6,86.7c0.6,0,1.1-0.1,1.7-0.2c0.5-0.2,1-0.3,1.6-0.3c0.2,0,0.3-0.2,0.3-0.4c0-0.2-0.2-0.3-0.3-0.3
	c-1.1,0-2.1,0.6-3.3,0.5c-0.2,0-0.4,0.2-0.4,0.4C207.2,86.6,207.4,86.7,207.6,86.7L207.6,86.7z"/>
<path d="M207.9,86.5c0,1.7-0.4,3.5,0,5.2c0.2,0.7,0.6,1.6,1.4,1.7s1.4-0.7,1.8-1.3c0.3-0.4-0.4-0.8-0.6-0.4s-0.8,1.1-1.2,0.9
	c-0.3-0.1-0.4-0.5-0.5-0.7c-0.1-0.3-0.2-0.7-0.2-1c-0.1-1.5,0.2-3,0.2-4.4c0-0.2-0.2-0.3-0.4-0.3C208.1,86.1,207.9,86.3,207.9,86.5
	L207.9,86.5z"/>
<path d="M207.4,91.6c0.1-0.1,0.2-0.1,0.3-0.2l0.3-0.2c0.2-0.1,0.5-0.2,0.8-0.3c0.5-0.2,1.1-0.3,1.6-0.6c0.2-0.1,0.2-0.3,0.1-0.5
	c-0.1-0.2-0.3-0.2-0.5-0.1l0,0c-0.4,0.2-1,0.4-1.5,0.6c-0.6,0.2-1.1,0.4-1.5,0.8c-0.1,0.1-0.1,0.4,0,0.5
	C207.1,91.7,207.3,91.7,207.4,91.6z"/>
<path d="M212,92.1C212.1,92.1,211.9,92.1,212,92.1L212,92.1l0.3,0.1l0.4,0.2c0.3,0.2,0.7,0.3,1,0.5c0.3,0.1,0.7,0.2,1,0.1
	c0.3-0.1,0.6-0.4,0.7-0.7c0.1-0.5-0.1-1.1-0.5-1.3c-0.5-0.4-1.1-0.7-1.7-0.9l-0.4-0.2l-0.2-0.1h-0.1l0,0h-0.1
	c-0.1,0-0.2-0.1-0.3-0.2l-0.1-0.1h-0.1c0,0,0.1,0,0,0l-0.1,0.6c0.6-0.5,1.4-0.9,2.2-0.9c0.5,0,0.5-0.8,0-0.8c-0.9,0.1-1.8,0.4-2.5,1
	c-0.2,0.1-0.2,0.4-0.1,0.5c0,0,0,0,0,0.1c0.4,0.3,0.8,0.5,1.2,0.6l0.4,0.2l0.2,0.1h0.1h0.1l0,0c0.3,0.1,0.5,0.2,0.8,0.4l0.3,0.2h0.1
	c-0.1,0,0,0,0,0l0.1,0.1c0,0,0.1,0.2,0.1,0.1l0.1,0.1v0.1c-0.1-0.1,0,0,0,0s0,0,0,0.1s0,0,0,0V92c0,0,0-0.1,0,0s-0.1,0.2,0,0.1
	l-0.1,0.2c0-0.1,0,0,0,0l0,0l0,0c0,0-0.1,0,0,0h-0.1c-0.1,0,0.1,0,0,0h-0.2c0.1,0,0,0,0,0l-0.3-0.1c-0.6-0.2-1.2-0.6-1.8-0.9
	c-0.2,0-0.4,0.1-0.4,0.3c0,0.2,0.1,0.4,0.2,0.4L212,92.1z"/>
<path d="M215.6,85.7c-0.1,0.6-0.1,1.1-0.1,1.7c0,0.7,0,1.5,0.1,2.2c0,0.6,0.1,1.3,0.4,1.9c0.2,0.6,0.8,0.9,1.4,0.9
	c0.8-0.1,1.1-0.9,1.1-1.6c0-0.5-0.7-0.5-0.8,0c0,0.2-0.1,0.5-0.2,0.7c-0.1,0.1-0.2,0.2-0.3,0.2c-0.1,0-0.3-0.1-0.4-0.2
	c-0.2-0.2-0.3-0.4-0.3-0.6c-0.2-1.1-0.3-2.2-0.2-3.3c0-0.5,0-1,0.1-1.6C216.4,85.5,215.7,85.3,215.6,85.7L215.6,85.7z"/>
<path d="M215.3,90.1c0.3-0.3,0.8-0.4,1.2-0.4c0.5,0,1,0,1.5-0.2c0.2-0.1,0.3-0.3,0.3-0.5c-0.1-0.2-0.3-0.3-0.5-0.3c0,0,0,0,0,0
	c-0.2,0.1-0.5,0.1-0.7,0.1h-0.8c-0.6,0-1.1,0.2-1.6,0.6c-0.1,0.1-0.1,0.4,0,0.5C214.9,90.3,215.1,90.3,215.3,90.1L215.3,90.1z"/>
<path d="M220.6,88.7c-0.6,0.1-1.2,0.5-1.6,1c-0.4,0.5-0.6,1.1-0.6,1.7c0,0.3,0.1,0.6,0.3,0.8c0.3,0.2,0.6,0.4,0.9,0.4
	c0.4,0,0.8-0.1,1.1-0.3c0.2-0.2,0.4-0.5,0.5-0.8c0.2-0.7,0.2-1.4,0.2-2.2c0-0.2-0.1-0.4-0.3-0.4c-0.2,0-0.4,0.1-0.4,0.3
	c0,0,0,0.1,0,0.1c0,0.5,0,0.9,0.2,1.4c0.1,0.5,0.3,1,0.5,1.5c0.1,0.2,0.4,0.2,0.5,0.1c0.1-0.1,0.2-0.3,0.1-0.4
	c-0.1-0.2-0.1-0.3-0.2-0.6s-0.1-0.5-0.2-0.7s-0.1-0.4-0.1-0.7c0-0.1,0,0.1,0,0v-0.1c0,0,0-0.1,0-0.1c0-0.1,0-0.2,0-0.3h-0.8v0.8
	c0,0.1,0,0.3,0,0.4c0,0.1,0,0.1,0,0.2c0,0.1,0,0,0,0s0,0.1,0,0.1c0,0.1-0.1,0.3-0.1,0.4v0.1c0-0.1,0,0,0,0l-0.1,0.2c0,0,0,0.1,0,0
	l-0.1,0.1h-0.1c-0.1,0.1,0,0,0,0h-0.1l0,0h-0.1h-0.1l0,0h-0.3h-0.2c0,0-0.1,0,0,0h-0.1l-0.1-0.1l0,0l0,0c0,0,0,0.1,0,0v-0.1l0,0
	c0,0,0-0.1,0-0.2s0,0.1,0,0s0,0,0-0.1c0-0.1,0-0.1,0-0.2c0,0,0-0.1,0,0c0,0,0-0.1,0-0.1c0-0.1,0-0.1,0-0.2l0.1-0.2l0,0l0,0
	c0,0,0-0.1,0-0.1l0.2-0.3l0.1-0.2c-0.1,0.1,0,0,0,0l0.1-0.1c0.1-0.1,0.2-0.2,0.3-0.3c-0.1,0,0,0,0,0l0.1-0.1c0.1,0,0.1-0.1,0.2-0.1
	c0.1,0-0.1,0,0,0h0.1h0.1c0,0-0.1,0,0,0c0.2,0,0.4-0.2,0.4-0.4c0-0.2-0.2-0.4-0.4-0.4L220.6,88.7z"/>
<path d="M222.1,85.6c1,1.3,0.4,3.1,0.5,4.6c0,0.7,0.2,1.5,0.7,2c0.4,0.4,1.1,0.5,1.6,0.2c0.6-0.4,1-1.1,0.9-1.8c0-0.5-0.8-0.5-0.8,0
	s-0.1,1.2-0.8,1.2s-0.9-1-0.9-1.5c-0.1-0.9,0.1-1.8,0.1-2.6c0-0.9-0.2-1.8-0.8-2.5C222.3,84.7,221.8,85.2,222.1,85.6L222.1,85.6z"/>
<path d="M221.5,90c0.7-0.1,1.4-0.2,2.1-0.4c0.6-0.3,1.2-0.3,1.8,0c0.4,0.3,0.8-0.4,0.4-0.7c-0.7-0.3-1.4-0.4-2.1-0.1
	c-0.7,0.2-1.4,0.4-2.1,0.5c-0.2,0-0.3,0.2-0.3,0.4C221.2,89.8,221.4,90,221.5,90L221.5,90z"/>
<path d="M226.5,88.6c-0.1,0.6-0.1,1.3,0,1.9c0,0.7,0.3,1.3,0.8,1.8c0.3,0.2,0.6,0.3,0.9,0.2c0.3-0.1,0.5-0.3,0.7-0.5
	c0.3-0.6,0.5-1.3,0.5-2c0-0.3,0-0.7,0-1c0-0.3-0.1-0.5-0.2-0.7c-0.1-0.2-0.3-0.2-0.5-0.1c-0.2,0.1-0.2,0.3-0.1,0.5c0,0,0,0.1,0,0
	c0,0,0,0.1,0,0.1c0,0,0,0.1,0,0.1s0,0.1,0,0c0,0,0,0.1,0,0.1c0,0.3,0,0.5,0,0.8c0,0.1,0,0.3,0,0.4s0,0.3-0.1,0.4
	c0,0.3-0.1,0.6-0.2,0.8c0,0.1,0,0,0,0c0,0,0,0.1,0,0.1l-0.1,0.2l-0.1,0.1c0.1-0.1,0,0,0,0l0,0l0,0h-0.1c0,0,0.1,0,0,0c0,0,0,0-0.1,0
	c0.1,0,0,0,0,0h-0.1c0.1,0,0,0,0,0s-0.1,0,0,0h-0.1c-0.1,0,0,0-0.1,0s-0.1-0.2-0.1-0.1l-0.1-0.2v-0.1c0,0-0.1-0.1,0-0.1
	c-0.1-0.3-0.2-0.6-0.2-0.9c0-0.1,0-0.1,0-0.2V90c0-0.2,0-0.3,0-0.5s0-0.3,0-0.4s0-0.1,0,0s0-0.1,0-0.1v-0.2c0.1-0.2-0.1-0.4-0.3-0.5
	c-0.2-0.1-0.4,0.1-0.5,0.3L226.5,88.6z"/>
<path d="M229.8,88.9c0.7,0.9,1.1,2.1,1.1,3.2l0.7-0.1c0,0,0-0.1,0-0.2s0-0.1,0-0.1s0,0.1,0,0v-0.5c0-0.2,0-0.4,0-0.6
	c0-0.1,0-0.2,0-0.3c0,0,0-0.1,0-0.1s0-0.2,0-0.1c0-0.4,0.1-0.7,0.3-1.1V89c0-0.1,0,0.1,0,0s0-0.1,0.1-0.1c0-0.1,0.1-0.1,0.1-0.2
	c0,0-0.1,0.1,0,0l0,0l0.1-0.1c0,0-0.1,0,0,0l0,0c0.1,0,0,0,0,0h0.1c-0.1,0.1-0.1,0-0.1,0h0.1c0.1,0-0.1,0,0,0h0.1c0.1,0-0.1,0,0,0
	l0.1,0.1l0,0h0.1c0.1,0.1,0.2,0.2,0.3,0.3c0.1,0.1,0.4,0.1,0.5,0c0.1-0.2,0.1-0.4,0-0.5c-0.2-0.4-0.6-0.6-1.1-0.6
	c-0.4,0-0.7,0.3-0.9,0.6c-0.4,0.8-0.5,1.7-0.5,2.6c0,0.4,0,0.8,0.1,1.2c0.1,0.4,0.8,0.3,0.7-0.1c-0.1-1.3-0.5-2.5-1.2-3.6
	c-0.1-0.2-0.3-0.3-0.5-0.2C229.8,88.4,229.7,88.6,229.8,88.9C229.8,88.8,229.8,88.9,229.8,88.9L229.8,88.9z"/>
<path d="M235.6,88.3c-0.7-0.3-1.6,0-2,0.7c-0.4,0.6-0.5,1.3-0.3,2c0.3,0.7,1.1,1.1,1.8,0.8c0.7-0.3,1.1-1,1.2-1.7
	c0.1-0.4,0.2-0.8,0.2-1.2c0-0.3,0-0.7-0.1-1c0-0.2-0.2-0.3-0.4-0.3c-0.2,0-0.3,0.2-0.3,0.4c-0.1,0.7,0,1.5,0.1,2.2
	c0,0.7,0.3,1.4,0.8,2c0.2,0.1,0.4,0.1,0.5-0.1c0.1-0.1,0.1-0.3,0-0.4c-0.2-0.2-0.3-0.4-0.4-0.7c-0.1-0.3-0.2-0.7-0.2-1
	c-0.1-0.7-0.1-1.3-0.1-2l-0.7,0.1c0,0.1,0.1,0.2,0.1,0.3c0,0,0,0.1,0,0s0,0.1,0,0.1s0,0.1,0,0.2c0,0.1,0,0.3,0,0.4
	c0,0.1,0,0.1,0,0.2c0,0,0,0.1,0,0.1s0,0.1,0,0.1c0,0.3-0.1,0.6-0.3,0.9c0-0.1,0,0,0,0.1l-0.1,0.1c0,0.1-0.1,0.1-0.1,0.2
	s-0.1,0.1-0.1,0.1l-0.2,0.2c0,0-0.1,0.1,0,0L235,91h-0.1c-0.1,0,0.1,0,0,0h-0.1c-0.1,0,0.1,0,0,0h-0.1c-0.1,0,0.1,0,0,0h-0.1h-0.1
	c0.1,0,0,0,0,0s-0.1-0.1-0.1,0l-0.1-0.1c0,0-0.1-0.1,0,0c-0.1-0.2-0.2-0.4-0.2-0.6v-0.1c0,0,0-0.1,0,0v-0.2c0-0.1,0.1-0.3,0.1-0.4
	c0.1-0.1,0.1-0.2,0.2-0.3c0.1-0.1,0.2-0.2,0.3-0.2c0.1-0.1-0.1,0,0,0h0.1h0.1l0,0h0.1c0.2,0,0.3,0,0.5,0.1c0.2,0.1,0.4-0.1,0.5-0.3
	c0.1-0.2-0.1-0.4-0.3-0.5L235.6,88.3z"/>
<path d="M244.4,90.9c-0.6,0.2-1.2,0.3-1.9,0.1c-0.6-0.3-0.7-1-0.7-1.6c0-0.2,0-0.5,0.1-0.7c0.1-0.3,0.2-0.6,0.3-0.9
	c0.2-0.6,0.5-1.1,0.9-1.6l0.2-0.2l0.1-0.1c0.1,0,0.1-0.1,0.2-0.1c0,0,0.1,0,0,0c0,0,0.1,0,0.1,0c0.1,0,0,0,0,0l0.1,0.1
	c0.1,0.1,0.2,0.2,0.3,0.3c0.3,0.4,0.9,0,0.6-0.4c-0.4-0.6-1.1-1-1.8-0.6c-0.6,0.4-1,1-1.2,1.7c-0.3,0.6-0.5,1.3-0.6,2
	c-0.1,0.9,0.2,1.7,0.8,2.3c0.8,0.4,1.8,0.4,2.6,0.1C245,91.5,244.8,90.8,244.4,90.9L244.4,90.9z"/>
<path d="M249.2,89.6c-0.2,0.1-0.5,0.2-0.7,0.2l-0.3,0.1H248h-0.1c-0.1,0-0.3,0-0.4,0h-0.2c0,0-0.1,0,0,0h-0.1l-0.2,0h-0.1
	c0.1,0,0,0,0,0l-0.1-0.1c-0.1,0,0,0,0,0l-0.1-0.1c-0.1-0.1-0.1-0.2-0.2-0.3v-0.1l0,0c0,0,0-0.1,0-0.2c0-0.1,0,0,0,0v-0.2
	c0,0,0-0.1,0-0.2s0,0,0,0c0,0,0-0.1,0-0.1c0-0.1,0-0.2,0.1-0.3c0,0,0.1-0.2,0-0.1l0.1-0.2c0-0.1,0.1-0.2,0.2-0.3l0.1-0.1l0,0
	l0.1-0.1l0.1-0.1l0.1-0.1c0,0,0.1-0.1,0,0l0.1-0.1h0.1l0,0l0,0h0.1c0,0,0.1,0,0,0h0.1c-0.1,0,0,0,0,0h0.1h0.1c0,0-0.1,0,0,0
	c0.2,0.1,0.4,0,0.5-0.1c0.1-0.2,0-0.4-0.1-0.5c-1.1-0.6-2.1,0.8-2.4,1.7c-0.2,0.5-0.2,1.1,0.1,1.6c0.3,0.5,0.9,0.9,1.6,0.8
	c0.7,0,1.4-0.2,2-0.4c0.2-0.1,0.3-0.3,0.3-0.5c-0.1-0.2-0.3-0.3-0.5-0.3L249.2,89.6z"/>
<path d="M250.7,89.8c-0.2-1-0.2-2-0.4-3c-0.1-0.4-0.7-0.3-0.7,0.1c-0.1,0.7,0,1.4,0.2,2.1c0.1,0.3,0.5,0.2,0.6,0
	c0.2-0.3,0.5-0.6,0.7-0.9l0.2-0.2c0,0,0.1-0.1,0,0s0,0,0,0h0.1l0,0l0,0c0,0,0.1,0,0,0s0,0,0,0l0,0l0,0l0,0c0,0-0.1-0.1,0,0l0,0
	c0.1,0.1,0.1,0.2,0.1,0.3c0.1,0.4,0.3,0.9,0.3,1.4c0.1,0.2,0.3,0.3,0.5,0.3c0.1,0,0.2-0.1,0.3-0.3c0.1-0.4,0.2-0.9,0.4-1.3
	c0-0.1,0.1-0.2,0.1-0.2c0,0,0.1-0.1,0.1-0.1c0,0,0.1,0,0,0l0,0c0.1,0,0.1,0.1,0.2,0.1c0,0,0.1,0.1,0.1,0.2c0,0.1,0.1,0.2,0.1,0.3
	c0,0.2,0.1,0.5,0.1,0.7c0,0.5,0,0.9,0.1,1.4c0.1,0.2,0.3,0.3,0.5,0.2c0.2-0.1,0.3-0.2,0.2-0.4c-0.3-1,0.2-2.5-0.9-3.1
	s-1.8,1.2-1.9,2h0.7c-0.1-0.5-0.2-1.1-0.4-1.6c-0.1-0.3-0.4-0.5-0.7-0.6c-0.3,0-0.7,0.1-0.9,0.4c-0.3,0.4-0.7,0.8-0.9,1.2h0.6
	c-0.2-0.6-0.2-1.1-0.1-1.7l-0.7,0.1c0.2,1,0.2,2,0.4,3c0.1,0.5,0.8,0.3,0.7-0.2L250.7,89.8z"/>
<path d="M256.6,91.7c0.4-1.2,0.6-2.5,0.5-3.7c-0.1-1.2-0.4-2.6-1.5-3.2c-0.2-0.1-0.4,0-0.5,0.1c-0.3,0.5-0.2,1.1,0.1,1.5
	c0.3,0.4,0.9,0,0.6-0.4c-0.1-0.3-0.3-0.5-0.1-0.8l-0.5,0.1c1,0.5,1.1,1.8,1.2,2.8c0.1,1.1-0.1,2.2-0.4,3.3
	C255.7,91.9,256.4,92.1,256.6,91.7L256.6,91.7z"/>
<path d="M155.3,18.1v6.2h0.7c-0.2-1.9-0.2-3.9,0.1-5.8c0-0.3,0.2-0.6,0.4-0.9c0,0,0,0,0.1,0h0.2c0.1,0,0.2,0,0.3,0.1
	c0.5,0.3,0.5,1.3,0.4,1.9c-0.1,0.5-0.3,0.9-0.7,1.2c-0.2,0.1-0.4,0.3-0.6,0.3c-0.3,0.1-0.7,0.1-0.9,0.4c-0.1,0.2,0,0.4,0.1,0.5
	c0.1,0.1,0.2,0,0.3,0c0.2,0.1,0.4-0.1,0.5-0.3c0.1-0.2-0.1-0.4-0.3-0.5c-0.1,0-0.1,0-0.2,0c-0.1,0-0.1,0,0.1,0l0.1,0.5l0,0l-0.3,0.1
	c1.2-0.1,2.1-0.9,2.5-2c0.3-0.9,0.2-1.9-0.4-2.7c-0.5-0.5-1.2-0.6-1.8-0.1c-0.1,0.1-0.2,0.2-0.3,0.4c-0.4,1.1-0.6,2.2-0.5,3.4
	c0,1.2,0.1,2.3,0.1,3.5c0,0.2,0.2,0.3,0.4,0.3c0.2,0,0.3-0.2,0.3-0.3v-6.3c0-0.2-0.2-0.3-0.4-0.3C155.4,17.8,155.2,18,155.3,18.1
	L155.3,18.1z"/>
<path d="M160.6,23.2l-0.3,0.3l-0.1,0l-0.1,0.1l-0.1,0.1c0,0-0.1,0,0,0h-0.1l-0.3,0.1c0.1,0,0,0,0,0h-0.2c-0.1,0,0,0,0,0
	s-0.1,0-0.1,0h-0.1c-0.1,0,0.1,0,0,0l-0.2-0.1c-0.1,0,0.1,0.1,0,0l0,0l-0.1-0.1l-0.1-0.1l0,0c0.1,0.1,0,0,0,0c0-0.1-0.1-0.1-0.1-0.2
	c0,0,0-0.1-0.1-0.1c0-0.1,0,0.1,0,0v-0.1l-0.1-0.2c0,0,0-0.1,0-0.1c0,0,0,0,0,0c0,0.1,0,0,0,0c0-0.1,0-0.2,0-0.2c0,0,0-0.1,0-0.1
	l0,0l0,0l0.1-0.3c0,0,0-0.1,0-0.1s0-0.1,0,0v-0.1c0-0.1,0.1-0.2,0.1-0.2c0,0,0,0,0-0.1l0,0l0.1-0.1l0.1-0.1c0,0,0.1-0.1,0.1,0
	c0.1-0.1,0.2-0.1,0.3-0.2l0.1-0.1h0.1c0.1,0-0.1,0,0,0l0.2-0.1l0,0c0.1,0-0.1,0,0,0h0.1c0.1,0,0,0,0,0h0.1l0,0l0,0
	c0.1,0-0.1-0.1,0,0s0,0,0,0v0.1c0,0,0-0.1,0,0c0,0,0,0,0,0.1c0,0,0-0.1,0,0V21c0,0.1,0-0.1,0,0c0,0,0,0.1,0,0.1c0,0,0,0,0,0.1
	c0,0.1,0-0.1,0,0c0,0.1-0.1,0.1-0.1,0.2l0,0c-0.1,0.1,0,0,0,0l-0.1,0.1l-0.2,0.2l0,0l-0.1,0l-0.1,0.1c0,0-0.1,0.1-0.1,0.1h-0.1
	l-0.3,0.1h-0.2h-0.1c-0.1,0,0.1,0,0,0h-0.4c-0.2,0-0.4,0.2-0.4,0.4c0,0.2,0.2,0.4,0.4,0.4c0.9,0.1,1.8-0.4,2.3-1.1
	c0.2-0.3,0.2-0.6,0.2-1c-0.1-0.3-0.4-0.6-0.7-0.6c-0.4,0-0.8,0.1-1.1,0.4c-0.4,0.3-0.7,0.7-0.9,1.1c-0.3,0.8-0.1,1.7,0.5,2.3
	c0.3,0.3,0.8,0.5,1.2,0.5c0.6-0.1,1.1-0.3,1.5-0.8c0.1-0.2,0.1-0.4-0.1-0.5c-0.1-0.1-0.3-0.1-0.4,0L160.6,23.2z"/>
<path d="M161.3,23.4c0,0.4,0.2,0.7,0.4,1c0.2,0.2,0.5,0.3,0.9,0.3c0.6,0,1.2-0.4,1.4-1c0.3-0.8-0.3-1.5-1-1.8
	c-0.3-0.1-0.7-0.3-1-0.4h-0.1c0.1,0,0,0,0,0h-0.1c-0.1,0,0.1,0,0,0s0,0.1,0,0s0,0.1,0,0s0-0.1,0,0l0,0c0-0.1,0,0.1,0,0s0,0,0,0
	s0,0,0,0v0c0,0,0.1-0.1,0-0.1l0,0l0.1-0.1l0,0c-0.1,0.1,0,0,0,0l0.1-0.1c-0.1,0,0,0,0.1,0h0.2h0.2h0.1c0.1,0,0,0,0,0
	c0.2,0,0.5,0,0.7,0h0.3h0.2c0.2,0.1,0.4-0.1,0.5-0.3c0,0,0,0,0,0c0.1-0.2-0.1-0.4-0.3-0.5c0,0,0,0,0,0c-0.4-0.1-0.8-0.1-1.1-0.1
	c-0.4,0-0.9,0.1-1.3,0.3c-0.4,0.2-0.6,0.6-0.6,1.1c0.1,0.4,0.5,0.5,0.8,0.6c0.1,0.1,0.3,0.1,0.5,0.1l0.2,0.1c0.1,0-0.1,0,0,0l0.1,0
	l0.1,0.1l0,0l0,0l0.2,0.2v0l0.1,0.1c0,0,0,0.1,0.1,0.1l0,0c0,0,0,0,0,0.1v0.1v0c0,0,0-0.1,0,0v0.1c0,0.1,0-0.1,0,0s0,0.1,0,0.2
	s0-0.1,0,0l0,0l-0.1,0.1l0,0c0,0,0,0.1-0.1,0.1l-0.1,0.1l0,0c-0.1,0,0,0,0,0l-0.1,0.1h-0.1c-0.1,0,0.1,0,0,0c-0.1,0-0.1,0.1-0.2,0.1
	l0,0c-0.1,0,0.1,0,0,0h-0.2h-0.1l0,0c-0.1,0,0.1,0,0,0l-0.1-0.1c-0.1,0,0.1,0.1,0,0l-0.1-0.1c0,0-0.1-0.1,0,0s0,0,0,0l-0.1-0.1
	c0,0,0-0.1,0,0s0,0,0-0.1c0,0,0-0.1,0-0.1c0,0,0,0,0-0.1s0,0.1,0,0c0-0.2-0.2-0.4-0.4-0.4c-0.2,0-0.4,0.2-0.4,0.4L161.3,23.4z"/>
<path d="M165.6,20.2c-0.4,0.3-0.8,0.8-1,1.3c-0.3,0.5-0.4,1.1-0.4,1.7c0,0.6,0.2,1.1,0.7,1.5c0.5,0.2,1,0.2,1.4-0.1
	c0.9-0.6,1.4-1.6,1.3-2.7c-0.1-0.8-0.6-1.5-1.3-1.8c-0.4-0.1-0.8-0.1-1.2,0.2c-0.5,0.4-0.8,0.9-0.9,1.4c0,0.2,0.1,0.4,0.3,0.4
	c0.2,0,0.4-0.1,0.4-0.2c0.1-0.2,0.1-0.4,0.3-0.6c0,0,0.1-0.1,0.1-0.1V21l0,0l0.2-0.2c0.1-0.1,0,0,0,0l0.1-0.1h0.1l0,0h0.1h0.1
	c0.1,0,0,0,0,0h0.3c-0.1,0,0,0,0,0h0.1h0.1c-0.1,0,0,0,0,0l0.2,0.1c0,0-0.1,0,0,0l0,0l0.1,0.1l0.1,0.1c0,0,0.1,0.1,0,0l0.1,0.2
	c0,0,0,0.1,0.1,0.1l0,0c0,0,0-0.1,0,0c0,0.1,0.1,0.2,0.1,0.2v0.1c0,0,0,0.1,0,0.1s0,0.1,0,0.1c0,0,0,0.1,0,0.1c0,0.1,0,0.2,0,0.3
	c0-0.1,0,0,0,0.1s0,0.1,0,0.2c-0.1,0.4-0.3,0.7-0.6,1c-0.1,0.2-0.3,0.3-0.5,0.4c0,0-0.1,0,0,0h-0.1h-0.1h-0.1c-0.1,0,0,0,0,0h-0.1
	l0,0l0,0l0,0l0,0c0,0-0.1-0.1-0.1-0.1c-0.1-0.1-0.1-0.2-0.1-0.3c0,0,0-0.1,0-0.1c0,0,0,0,0-0.1s0,0.1,0,0c0-0.5,0.1-0.9,0.3-1.4
	c0.1-0.2,0.2-0.5,0.4-0.7l0.2-0.2l0.1-0.1c0,0,0.1-0.1,0.1-0.1c0.2-0.1,0.2-0.3,0.1-0.5C166.1,20.1,165.9,20.1,165.6,20.2
	C165.7,20.2,165.7,20.2,165.6,20.2L165.6,20.2z"/>
<path d="M158.3,38.3c-1.2-0.6-1.4-2.3-1.4-3.5s0.3-2.9,1.4-3.6l-0.4-0.1c0.1,0.1,0.2,0.2,0.3,0.3c0.3,0.4,0.9,0,0.6-0.4
	c-0.1-0.2-0.3-0.3-0.4-0.5c-0.1-0.1-0.3-0.1-0.5-0.1c-1.4,0.9-1.8,2.7-1.8,4.3s0.4,3.4,1.8,4.1C158.4,39.2,158.8,38.5,158.3,38.3
	L158.3,38.3z"/>
<path d="M161.4,37.1c0.1,0,0.1,0.1,0.2,0.1s0,0,0-0.1s0,0,0,0V37c0-0.2-0.1-0.3-0.1-0.5c-0.1-0.5-0.1-1-0.1-1.6c0-0.5,0-1.1,0-1.7
	c0-0.4,0.1-0.7,0.1-1.1l-0.7,0.1c0.1,0.2,0.3,0.4,0.4,0.6c0.2,0.4,0.9,0,0.6-0.4c-0.1-0.2-0.3-0.4-0.4-0.6c-0.1-0.2-0.3-0.2-0.5-0.1
	c-0.1,0-0.1,0.1-0.2,0.2c-0.1,0.3-0.1,0.6-0.1,0.9c0,0.5-0.1,0.9-0.1,1.4c0,0.9,0,1.8,0.1,2.7c0,0.3,0.1,0.7,0.5,0.8
	c0.2,0,0.4-0.1,0.4-0.3C161.7,37.3,161.6,37.1,161.4,37.1L161.4,37.1z"/>
<path d="M163.4,32.8c0-0.1,0-0.2,0-0.2c0,0,0,0.1,0,0C163.4,32.6,163.4,32.7,163.4,32.8c-0.1-0.1-0.2,0.1-0.1,0
	c0,0.1-0.1,0.1-0.1,0.2c-0.3,0.3-0.5,0.6-0.8,0.9s-0.6,0.6-0.8,0.9c-0.2,0.3-0.4,0.5-0.6,0.8c0,0.2,0,0.3,0.2,0.4
	c0.8,0.5,1.8,0.8,2.8,0.9c0.2,0,0.3-0.1,0.4-0.3c0-0.1,0.1-0.2,0.1-0.3c0.1-0.2,0-0.4-0.1-0.5c-0.2-0.1-0.4,0-0.5,0.1c0,0,0,0,0,0
	c-0.1,0.1-0.1,0.3-0.2,0.5l0.4-0.3c-0.8-0.1-1.7-0.4-2.4-0.8l0.2,0.4c0,0,0,0.1,0,0c0,0,0-0.1,0-0.1l0.1-0.2l0.1-0.2l0.2-0.3
	c0.3-0.3,0.6-0.7,0.9-1s0.5-0.6,0.8-0.9s0.4-0.5,0.3-0.9S163.2,32.4,163.4,32.8L163.4,32.8z"/>
<path d="M166.3,34.1c-1.1,0.4-2.3,2.5-0.8,3.2s2.2-1.3,2.2-2.3h-0.8c0.1,1.7,0.2,3.3,0.5,5c0,0.3,0,0.6,0.1,1c0,0.2,0,0.5-0.1,0.7
	c-0.2,0.2-0.5,0.2-0.8,0.1c-0.1,0-0.2-0.1-0.3-0.2c-0.1-0.1-0.1-0.1-0.1-0.2c-0.1-0.5-0.8-0.3-0.7,0.2s1.1,1,1.6,0.9
	c0.7,0,1.3-0.6,1.3-1.4c0.1-2.1-0.6-4.1-0.6-6.2c0-0.5-0.7-0.5-0.8,0s-0.4,1.9-1.1,1.7c-0.9-0.2,0.1-1.7,0.6-1.8
	S166.7,33.9,166.3,34.1L166.3,34.1z"/>
<path d="M170.2,39c1.3-0.3,1.4-1.6,1.3-2.7c-0.2-1.4-0.7-2.7-1.3-3.9c-0.2-0.4-0.6-1.4-1.1-1.3c-0.2,0-0.4,0.2-0.4,0.4
	c0,0.2,0.1,0.2,0.2,0.4c0.3,0.4,0.9,0,0.6-0.4c-0.1-0.1-0.1-0.2-0.2-0.2l0.1,0.3l0,0l-0.4,0.4c0,0,0.1,0,0.1,0l-0.3-0.2
	c0.8,1.1,1.3,2.3,1.6,3.6c0.3,0.9,0.8,2.8-0.5,3.1C169.6,38.4,169.8,39.1,170.2,39L170.2,39z"/>
<path class="st3" d="M187.1,71.9H187c-0.2,0-0.4,0-0.6,0.1c-0.2,0.1-0.4,0.2-0.5,0.3c-0.1,0.1-0.2,0.3-0.3,0.5
	c-0.1,0.2-0.1,0.4-0.1,0.6l0.1,0.4c0.1,0.3,0.2,0.5,0.4,0.7l0.3,0.2c0.2,0.1,0.5,0.2,0.8,0.2h0.2c0.2,0,0.4,0,0.6-0.1
	c0.4-0.1,0.7-0.4,0.8-0.8c0.1-0.2,0.1-0.4,0.1-0.6V73c-0.1-0.3-0.2-0.5-0.4-0.7l-0.3-0.2c-0.2-0.1-0.5-0.2-0.8-0.2l0,0
	c-0.2,0-0.4,0-0.6,0.1c-0.2,0.1-0.3,0.2-0.5,0.3c-0.1,0.1-0.3,0.3-0.3,0.5c-0.1,0.2-0.1,0.4-0.1,0.6l0.1,0.4
	c0.1,0.3,0.2,0.5,0.4,0.7l0.3,0.2c0.2,0.1,0.5,0.2,0.8,0.2l0,0c0.2,0,0.4,0,0.6-0.1c0.4-0.1,0.7-0.4,0.8-0.8
	c0.1-0.2,0.1-0.4,0.1-0.6V73c-0.1-0.3-0.2-0.5-0.4-0.7l-0.3-0.2c-0.2-0.1-0.5-0.2-0.8-0.2H187c-0.2,0-0.4,0-0.6,0.1
	c-0.2,0.1-0.4,0.2-0.5,0.3c-0.1,0.1-0.2,0.3-0.3,0.5c-0.1,0.2-0.1,0.4-0.1,0.6l0.1,0.4c0.1,0.3,0.2,0.5,0.4,0.7l0.3,0.2
	c0.2,0.1,0.5,0.2,0.8,0.2h0.1c0.2,0,0.4,0,0.6-0.1c0.2-0.1,0.3-0.2,0.5-0.3c0.1-0.1,0.3-0.3,0.3-0.5c0.1-0.2,0.1-0.4,0.1-0.6V73
	c-0.1-0.3-0.2-0.5-0.4-0.7l-0.3-0.2C187.7,72,187.4,71.9,187.1,71.9L187.1,71.9z"/>
<path class="st3" d="M198.8,76h0.2c0.2,0,0.4,0,0.6-0.1c0.4-0.1,0.7-0.4,0.8-0.8c0.1-0.2,0.1-0.4,0.1-0.6l-0.1-0.4
	c-0.1-0.2-0.2-0.5-0.4-0.7l-0.3-0.2c-0.2-0.1-0.5-0.2-0.8-0.2h-0.1c-0.2,0-0.4,0-0.6,0.1c-0.2,0.1-0.4,0.2-0.5,0.3
	c-0.1,0.1-0.3,0.3-0.3,0.5c-0.1,0.2-0.1,0.4-0.1,0.6v0.4c0.1,0.3,0.2,0.5,0.4,0.7l0.3,0.2C198.3,75.9,198.6,76,198.8,76L198.8,76z"
	/>
<path class="st3" d="M199.6,59.1l0.4,0.1c0.2,0,0.4,0,0.6,0c0.2,0,0.4-0.1,0.6-0.2c0.2-0.1,0.3-0.2,0.4-0.4c0.1-0.1,0.2-0.3,0.3-0.5
	l0.1-0.4c0-0.3-0.1-0.5-0.2-0.8l-0.2-0.3c-0.2-0.2-0.4-0.3-0.7-0.4l-0.4-0.1c-0.2-0.1-0.4-0.1-0.6,0c-0.2,0-0.4,0.1-0.6,0.2
	c-0.3,0.2-0.6,0.5-0.7,0.9l-0.1,0.4c0,0.3,0.1,0.5,0.2,0.8l0.2,0.3C199.1,58.9,199.4,59,199.6,59.1z"/>
<path class="st3" d="M216,57.4v-0.1c0-0.2,0-0.4-0.1-0.6c-0.1-0.2-0.2-0.3-0.3-0.5c-0.1-0.1-0.3-0.3-0.5-0.3
	c-0.2-0.1-0.4-0.1-0.6-0.1l-0.4,0.1c-0.2,0.1-0.5,0.2-0.7,0.4l-0.2,0.3c-0.1,0.2-0.2,0.5-0.2,0.8v0.1c0,0.2,0,0.4,0.1,0.6
	c0.1,0.2,0.2,0.4,0.3,0.5c0.1,0.1,0.3,0.2,0.5,0.3c0.2,0.1,0.4,0.1,0.6,0.1h0.4c0.3-0.1,0.5-0.2,0.7-0.4l0.2-0.3
	C215.9,58,216,57.7,216,57.4L216,57.4z"/>
<path class="st3" d="M215,49l0.1-0.3c0.1-0.2,0.2-0.4,0.2-0.6c0.1-0.2,0.1-0.4,0-0.6c0-0.2-0.1-0.4-0.3-0.5
	c-0.1-0.2-0.3-0.3-0.4-0.4l-0.4-0.2c-0.3-0.1-0.5-0.1-0.8,0l-0.4,0.2c-0.2,0.1-0.4,0.3-0.5,0.5l-0.1,0.3c-0.1,0.2-0.2,0.4-0.2,0.6
	c0,0.2,0,0.4,0,0.6c0,0.2,0.1,0.4,0.3,0.5c0.1,0.2,0.3,0.3,0.4,0.4l0.4,0.2c0.3,0.1,0.5,0.1,0.8,0l0.4-0.2
	C214.7,49.4,214.9,49.2,215,49z"/>
<path class="st3" d="M219.8,42.2L219.8,42.2l0.4,0.1l0,0l0.4,0.2l0,0l0.3,0.2l0,0l0.2,0.3l0,0l0.1,0.4l0,0l0.1,0.4l0,0l-0.1,0.4l0,0
	l-0.1,0.4l0,0l-0.2,0.3l0,0l-0.3,0.2l0,0c0.2-0.1,0.3-0.2,0.4-0.4c0.1-0.1,0.2-0.3,0.3-0.5c0.1-0.2,0.1-0.4,0-0.6
	c0-0.2-0.1-0.4-0.2-0.6l-0.2-0.3c-0.2-0.2-0.4-0.3-0.7-0.4L219.8,42.2c-0.3,0.1-0.6,0.1-0.8,0.3c-0.1,0.1-0.2,0.2-0.3,0.3l0,0
	c-0.1,0.1-0.2,0.2-0.2,0.3l0,0c-0.1,0.1-0.1,0.2-0.1,0.4l-0.1,0.4l0,0c0,0.1,0,0.3,0.1,0.4c0.1,0.3,0.2,0.5,0.4,0.7
	c0.1,0.1,0.2,0.1,0.3,0.1c0.1,0.1,0.2,0.1,0.4,0.2l0,0h0.4l0,0c0.2,0,0.4,0,0.6-0.1c0.2-0.1,0.3-0.2,0.5-0.3
	c0.3-0.3,0.4-0.7,0.4-1.1l-0.1-0.4c-0.1-0.2-0.2-0.5-0.4-0.7l-0.3-0.2C220.3,42.2,220,42.2,219.8,42.2L219.8,42.2z"/>
<path class="st3" d="M228.7,31.2h0.3c0.2,0,0.4,0,0.6-0.1c0.4-0.1,0.7-0.4,0.8-0.8c0.1-0.2,0.1-0.4,0.1-0.6l-0.1-0.4
	c-0.1-0.2-0.2-0.5-0.4-0.7l-0.3-0.2c-0.2-0.1-0.5-0.2-0.8-0.2h-0.3c-0.2,0-0.4,0-0.6,0.1c-0.2,0.1-0.4,0.2-0.5,0.3
	c-0.1,0.1-0.2,0.3-0.3,0.5c-0.1,0.2-0.1,0.4-0.1,0.6v0.4c0.1,0.3,0.2,0.5,0.4,0.7l0.3,0.2C228.2,31.2,228.4,31.2,228.7,31.2
	L228.7,31.2z"/>
<path class="st3" d="M237.2,30.6h0.3c0.2,0,0.4,0,0.6-0.1c0.2-0.1,0.4-0.2,0.5-0.3c0.1-0.1,0.2-0.3,0.3-0.5c0.1-0.2,0.1-0.4,0.1-0.6
	l-0.1-0.4c-0.1-0.2-0.2-0.5-0.4-0.7l-0.3-0.2c-0.2-0.1-0.5-0.2-0.8-0.2h-0.3c-0.2,0-0.4,0-0.6,0.1c-0.4,0.1-0.7,0.4-0.8,0.8
	c-0.1,0.2-0.1,0.4-0.1,0.6l0.1,0.4c0.1,0.3,0.2,0.5,0.4,0.7l0.3,0.2C236.7,30.5,236.9,30.6,237.2,30.6L237.2,30.6z"/>
<path class="st3" d="M247.2,24.6c0.8,0,1.5-0.7,1.5-1.5s-0.7-1.5-1.5-1.5s-1.5,0.7-1.5,1.5S246.4,24.6,247.2,24.6z"/>
<path class="st3" d="M247.1,13L247.1,13l0.4-0.1l0,0l0.4,0.1l0,0l0.4,0.1l0,0l0.3,0.2l0,0l0.4,0.7l0,0l0.1,0.4l0,0l-0.1,0.4l0,0
	l-0.1,0.4l0,0l-0.2,0.3l0,0l-0.3,0.2l0,0h0.1l0.1-0.1h0.1c0.2-0.1,0.3-0.2,0.4-0.4c0.1-0.1,0.2-0.3,0.3-0.5c0.1-0.2,0.1-0.4,0-0.6
	c0-0.2-0.1-0.4-0.2-0.6l-0.2-0.3c-0.2-0.2-0.4-0.3-0.7-0.4l-0.4-0.1c-0.3,0-0.5,0.1-0.8,0.2l-0.2,0.1h-0.1l0,0
	c-0.2,0.1-0.4,0.3-0.6,0.6c-0.3,0.5-0.3,1,0,1.5c0.3,0.5,0.8,0.7,1.3,0.7c0.1,0,0.3,0,0.4-0.1l0,0c0.2,0,0.4-0.1,0.5-0.3
	c0.2-0.1,0.3-0.3,0.4-0.4c0.1-0.2,0.2-0.4,0.2-0.6c0.1-0.2,0.1-0.4,0-0.6l-0.1-0.4c-0.1-0.2-0.3-0.4-0.5-0.5l-0.4-0.1
	C247.6,12.9,247.3,12.9,247.1,13L247.1,13z"/>
<path class="st3" d="M257.1,7L257.1,7c-0.9,0-1.6,0.7-1.6,1.5s0.7,1.5,1.5,1.5h0.1c0.8,0,1.5-0.7,1.5-1.5S258,7,257.1,7L257.1,7
	c-0.9,0-1.6,0.7-1.6,1.5s0.7,1.5,1.5,1.5h0.1c0.8,0,1.5-0.7,1.5-1.5S258,7,257.1,7z"/>
<path class="st3" d="M263.4,10.8l0.1-0.1c0.1-0.1,0.3-0.3,0.3-0.5c0.1-0.2,0.1-0.4,0.1-0.6c0-0.2,0-0.4-0.1-0.6
	c-0.1-0.2-0.2-0.3-0.3-0.5l-0.3-0.2c-0.2-0.1-0.5-0.2-0.8-0.2l-0.4,0.1c-0.2,0.1-0.5,0.2-0.7,0.4l-0.1,0.1C261.2,8.9,261,9,261,9.2
	c-0.1,0.2-0.1,0.4-0.1,0.6c0,0.2,0,0.4,0.1,0.6c0.1,0.2,0.2,0.4,0.3,0.5l0.3,0.2c0.2,0.1,0.5,0.2,0.8,0.2h0.4
	C263,11.2,263.2,11.1,263.4,10.8L263.4,10.8z"/>
<path class="st3" d="M159.7,128.2c-1.2-2.6,3.8-4.2,5.5-4.2c3.5-0.3,6.6,2,7.4,5.4c0.7,3.5-2.8,6.1-4.9,8.2c-2.9,3-4.8,6.6-6.4,10.4
	c-0.4,0.7-0.2,1.6,0.5,2.1c0.8,0.5,1.8,0.5,2.7,0.1c1.8-0.7,1-3.6-0.8-2.9c-0.1,0-0.3,0.1-0.4,0.2l0.5,2.1c1.6-3.8,3.4-7.3,6.3-10.2
	c2.3-2.4,5.1-4.8,5.5-8.3c0.8-7.4-7.8-11.8-14-9.3c-3.3,1.3-6.3,4.3-4.5,8C157.9,131.5,160.5,130,159.7,128.2L159.7,128.2z"/>
<path class="st3" d="M164.9,156.1C164.9,156.1,164.9,156.2,164.9,156.1L164.9,156.1l-0.3,0.4l0,0l0,0l-0.1,0.4l0,0l0,0
	c0,0.1,0,0.3-0.1,0.4l0,0l0.1,0.4l0,0c0,0.1,0.1,0.3,0.2,0.4c0.1,0.1,0.2,0.3,0.3,0.4l0.1,0.1c0.1,0.1,0.3,0.3,0.5,0.3
	c0.4,0.2,0.8,0.2,1.2,0c0.2-0.1,0.3-0.2,0.5-0.3l0.2-0.3c0.1-0.2,0.2-0.5,0.2-0.8l-0.1-0.4c-0.1-0.3-0.2-0.5-0.4-0.7
	c0,0-0.1-0.1-0.1-0.1l0.2,0.3c0,0,0,0,0-0.1l0.1,0.4c0,0,0,0,0-0.1l0.1,0.4v-0.1l-0.1,0.4c0,0,0,0,0-0.1l-0.1,0.4v-0.1l-0.2,0.3
	c0,0,0.1-0.1,0.1-0.1c0.1-0.1,0.3-0.3,0.3-0.5c0.1-0.2,0.1-0.4,0.1-0.6c0-0.2,0-0.4-0.1-0.6c-0.1-0.2-0.2-0.4-0.3-0.5l-0.3-0.2
	c-0.2-0.1-0.5-0.2-0.8-0.2l-0.4,0.1c-0.2,0.1-0.5,0.2-0.7,0.4L164.9,156.1z"/>
<path class="st3" d="M166.8,167.9c-7.3,0-14.4-3.1-20.6-6.8c-5.4-3.1-9.6-8-11.9-13.8c-2-5.4-2.2-11.4-0.4-16.9
	c1.8-5.1,5.1-9.5,9.4-12.8c8.9-6.9,21.4-8.9,31.6-3.7c5.7,3.1,10.5,7.7,13.9,13.3c2,3,3.6,6.3,4.9,9.7c1.4,3.5,2.3,7.4,1.6,11.2
	c-1.1,6.4-6.5,10.5-12.2,12.8c-3.2,1.2-6.5,2.2-9.8,3c-3.9,1-7.9,1.7-11.9,2.1c-1.9,0.2-3.9,0.3-5.9,0.3c-0.8,0-1.5,0.7-1.5,1.5
	s0.7,1.5,1.5,1.5c8.5-0.2,17-1.7,25.1-4.4c6.2-1.9,12.6-5.2,15.9-11.1c4-7.5,1.3-16-2.2-23.1c-3.1-6.5-7.7-12.2-13.4-16.7
	c-10.6-7.8-24.7-7.9-35.8-1.3c-5.2,3-9.4,7.4-12.3,12.7c-2.8,5.5-3.8,11.8-2.6,17.8c1.2,6.7,4.7,12.7,9.9,17.1
	c2.9,2.4,6.1,4.3,9.6,5.9c3.6,1.8,7.4,3.2,11.4,4c1.9,0.4,3.8,0.6,5.8,0.6c0.8,0,1.5-0.7,1.5-1.5S167.5,168,166.8,167.9L166.8,167.9
	z"/>
</svg>
