<svg id="Capa_1" data-name="Capa 1" xmlns="http://www.w3.org/2000/svg" viewBox="0 0 185.46 141.2"><defs><style>.cls-1{fill:none;stroke:#000;stroke-miterlimit:10;}.cls-2{fill:aqua;}.cls-3{fill:#f7931e;}</style></defs><title>estatura</title><line class="cls-1" x1="47.14" x2="47" y2="124.96"/><line class="cls-1" x1="185.45" y1="123.91" x2="47" y2="124.96"/><path d="M.28,75.74c0,4.39,1.17,9.12-.26,13.39l.72.2a25.05,25.05,0,0,0,.39-3c.11-.81.28-2.63,1.23-2.95,1.8-.6,1.06,5.06,1.05,5.9a.38.38,0,0,0,.75,0c0-1.06.16-2.12.15-3.19a4.66,4.66,0,0,0-.67-3,1.45,1.45,0,0,0-2.11-.06A5,5,0,0,0,.45,85.87,31.92,31.92,0,0,1,0,89.13a.37.37,0,0,0,.72.2C2.2,85,1.05,80.2,1,75.74a.38.38,0,0,0-.75,0Z" transform="translate(0)"/><path d="M6.56,83.46a16.6,16.6,0,0,0-.34,2.8,7,7,0,0,0,.26,2.8,1.14,1.14,0,0,0,.73.75,1.34,1.34,0,0,0,1.13-.39,6.09,6.09,0,0,0,1.35-1.68,3.28,3.28,0,0,0,.48-2.11c-.26-1.57-2.08-2.29-3.41-2.69-.47-.14-.66.59-.2.73,1,.29,2.38.76,2.79,1.81A2,2,0,0,1,9.21,87,5.94,5.94,0,0,1,8,88.7,1.87,1.87,0,0,1,7.6,89s-.1,0,0,0l-.1,0s-.14,0,0,0a.11.11,0,0,1-.08,0c.16,0,0,0,0,0s0,0,0,0l-.06,0c.09.06,0,0,0,0s0,0,0,0a.43.43,0,0,0,0-.07l0-.1,0,0a3.9,3.9,0,0,1-.2-1A10.44,10.44,0,0,1,7,86.4a15.43,15.43,0,0,1,.32-2.74c.1-.47-.62-.67-.72-.2Z" transform="translate(0)"/><path d="M12.25,89.3c0-1.89-.36-3.77-.26-5.66h-.75c0,1.08,0,2.16,0,3.23A.38.38,0,0,0,12,87a4.12,4.12,0,0,1,.81-1.55,1.63,1.63,0,0,1,.46-.37.72.72,0,0,1,.36-.08.47.47,0,0,1,.29.14,1.13,1.13,0,0,1,.27.42,4.07,4.07,0,0,1,.16,1.87l.73-.1c-.39-1.08-.57-2.59.68-3.16l-.46-.06c1.42,1.36,1.12,3.45,1.13,5.22a.38.38,0,0,0,.75,0c0-2,.25-4.23-1.35-5.75a.38.38,0,0,0-.45,0c-1.57.7-1.53,2.61-1,4a.38.38,0,0,0,.74-.1c.09-1,0-3-1.37-3.17s-2.13,1.52-2.46,2.54l.74.1c-.08-1.07,0-2.15,0-3.23a.38.38,0,0,0-.75,0c-.1,1.89.25,3.77.26,5.66a.38.38,0,0,0,.75,0Z" transform="translate(0)"/><path d="M20.82,88.46a1,1,0,0,1-1.53-.78,2.18,2.18,0,0,1,.86-2.19c.63-.43,1.22,0,1.45.66a2,2,0,0,1-.57,2.1c-.34.35-.83.78-1.33.5a2.53,2.53,0,0,1-.86-1.26,10.63,10.63,0,0,1-.61-3.62c-.09-2.75-.2-5.51-.25-8.26l-.74.1c.09.3.19.61.27.91a.38.38,0,0,0,.73-.2L18,75.51a.37.37,0,0,0-.73.1c0,1.76.09,3.53.15,5.29.05,1.43,0,2.89.16,4.31s.49,3.33,1.7,4.13c1.53,1,3.26-1.21,3.22-2.62a2.33,2.33,0,0,0-1.15-2,1.78,1.78,0,0,0-2.16.73,2.82,2.82,0,0,0-.37,3,1.72,1.72,0,0,0,2.42.64c.43-.21.05-.86-.38-.65Z" transform="translate(0)"/><path d="M22.77,84.54A10.08,10.08,0,0,1,24,90.41l.74-.1A3.92,3.92,0,0,1,25,87.39c.32-.68,1-1.81,1.9-1.64.47.09.67-.63.2-.72-1.25-.23-2.19.84-2.69,1.86A4.74,4.74,0,0,0,24,90.51a.37.37,0,0,0,.73-.1,10.87,10.87,0,0,0-1.29-6.25c-.23-.43-.88,0-.65.38Z" transform="translate(0)"/><path d="M27.08,87.8a2.48,2.48,0,0,0,3-.57c.52-.58,1.07-1.77.23-2.34a1.81,1.81,0,0,0-1.48-.06,2.83,2.83,0,0,0-1.51,1,3.26,3.26,0,0,0-.22,3.25,2.78,2.78,0,0,0,3.35,1.59.38.38,0,0,0,.28-.36,4.84,4.84,0,0,0,0-1.37c-.09-.47-.81-.27-.72.2A4.18,4.18,0,0,1,30,90.31l.27-.36A2.06,2.06,0,0,1,28,89.09a2.65,2.65,0,0,1-.25-2.44,1.91,1.91,0,0,1,.81-.9,2.61,2.61,0,0,1,.71-.25,1,1,0,0,1,.28,0h.2c.11,0,0,0,0,0l.11,0h0s.11.07,0,0a.23.23,0,0,1,.07.07c-.06-.1,0,0,0,0s0-.08,0,0,0,.12,0,.06,0,0,0,.08v.12a2.17,2.17,0,0,1-.07.24.14.14,0,0,1,0,.06c0-.07,0,0,0,0l-.06.12a1.43,1.43,0,0,1-.16.24,2,2,0,0,1-.89.7,1.52,1.52,0,0,1-1.33-.09c-.43-.22-.81.43-.38.65Z" transform="translate(0)"/><path d="M32.11,88.52a1.74,1.74,0,0,0,1.17,1.88,2.15,2.15,0,0,0,2.16-.48,1.68,1.68,0,0,0,.34-2.11,4.11,4.11,0,0,0-2-1.22c-.43-.16-.83-.31-1.24-.51a4.74,4.74,0,0,1-.54-.31l-.19-.15-.09-.09a.21.21,0,0,0,0-.06s0,.07,0,0l-.05.45a3.39,3.39,0,0,1,1.69-1,2.68,2.68,0,0,1,1.81,0c.44.21.82-.44.38-.65a4,4,0,0,0-4.42,1.1.36.36,0,0,0-.05.45A3.86,3.86,0,0,0,32.85,87a11,11,0,0,1,1.92.86,1.46,1.46,0,0,1,.29.23l.06.08c.07.08,0-.06,0,0a.22.22,0,0,1,0,.08s.06.13,0,0a.83.83,0,0,1,0,.67,1.35,1.35,0,0,1-1.37.75,1.13,1.13,0,0,1-.72-.34.92.92,0,0,1-.2-.35,1.41,1.41,0,0,1,0-.55.38.38,0,0,0-.75,0Z" transform="translate(0)"/><path d="M5.33,31.3c0-4.86,1.22-9.86,0-14.66-.08-.33-.67-.38-.72,0a18.48,18.48,0,0,0,.12,4.58,13.44,13.44,0,0,0,1.41,5.32c.67,1.11,1.92,1.68,3,.71,1.27-1.15,1.66-3.26,1.94-4.86a24.9,24.9,0,0,0,.48-5.78.38.38,0,0,0-.75,0c0,4.95-1.26,10.22.27,15.05.15.46.87.27.72-.2-1.5-4.75-.26-10-.24-14.85h-.75a23.11,23.11,0,0,1-.24,4.24,14.34,14.34,0,0,1-1.35,5.07C9,26.38,8.6,27,8,27s-.94-.43-1.2-.85a12,12,0,0,1-1.27-4.71,18.74,18.74,0,0,1-.18-4.61H4.65c1.16,4.73-.05,9.68-.07,14.46a.38.38,0,0,0,.75,0Z" transform="translate(0)"/><path d="M13.2,25.46a9.6,9.6,0,0,0-.31,3.11c.07,1,.33,2.28,1.42,2.61,2.16.67,2.57-2.62,2.68-4a18.07,18.07,0,0,0,0-2.85.38.38,0,0,0-.7-.19c-.25.35-.18.68-.24,1.07s.65.68.72.2c.05-.3,0-.63.17-.89l-.7-.19a13.63,13.63,0,0,1-.37,4.89,3.23,3.23,0,0,1-.43.94.79.79,0,0,1-.66.36c-.85,0-1.08-1.06-1.14-1.77a8.65,8.65,0,0,1,.26-3.08.37.37,0,0,0-.72-.2Z" transform="translate(0)"/><path d="M17.88,24.52a37.82,37.82,0,0,0,.81,8.28c.17,1.15.39,2.33.51,3.48.06.58-.06,1.2-.77,1.26a2.16,2.16,0,0,1-1.68-.95c-.28-.38-.94,0-.64.38.68.91,2,1.73,3.1,1.09s.74-1.9.56-2.88c-.31-1.65-.49-3.33-.75-5a25.69,25.69,0,0,1-.39-5.67c0-.48-.72-.48-.75,0Z" transform="translate(0)"/><path d="M23.21,28.69a7.11,7.11,0,0,1-1,.76l-.24.12,0,0-.12.05-.21.06-.09,0-.08,0h-.31l-.07,0-.06,0c-.07,0-.05,0,0,0l-.12-.07,0,0,0,0,0,0-.1-.1,0,0,0,0-.08-.13,0-.07c0-.07,0,.07,0,0a2.8,2.8,0,0,1-.09-.31.29.29,0,0,0,0-.09h0c0-.06,0-.13,0-.19a2.16,2.16,0,0,1,0-.36c0-.06,0-.12,0-.17s0,.07,0,0,0-.07,0-.11.06-.24.1-.36a.84.84,0,0,1,.05-.17.3.3,0,0,0,0-.1c0,.08,0,0,0,0s.12-.23.18-.33l.12-.17,0,0,0,0,.07-.09.15-.14.07-.06,0,0,.16-.1.1-.05,0,0c.08,0-.06,0,0,0l.2-.07.1,0h.05L21.51,26A1.31,1.31,0,0,1,21,27.21a3.15,3.15,0,0,1-1.28.6.37.37,0,0,0,.2.72,3.73,3.73,0,0,0,1.68-.85,2.1,2.1,0,0,0,.63-1.92.38.38,0,0,0-.36-.28,2.74,2.74,0,0,0-2.23,2.59c-.14,1.07.32,2.44,1.6,2.43a4.18,4.18,0,0,0,2.5-1.28.37.37,0,1,0-.53-.53Z" transform="translate(0)"/><path d="M22.69,25.57c1.19,1.46,1.06,3.5,1.48,5.25a.37.37,0,0,0,.73-.1,25.33,25.33,0,0,1,0-2.89,2,2,0,0,1,1.31-1.91.37.37,0,0,0-.2-.72c-2.39.67-1.86,3.64-1.83,5.52l.74-.1c-.23-1-.31-1.94-.5-2.91A6,6,0,0,0,23.22,25c-.31-.38-.84.16-.53.53Z" transform="translate(0)"/><path d="M26.86,28.81a3.08,3.08,0,0,0,1.95-.39,2.4,2.4,0,0,0,1-1.26,2.69,2.69,0,0,0,.06-1.38,1.36,1.36,0,0,0-.61-.93.94.94,0,0,0-1.14.36,4.88,4.88,0,0,0-.87,2A3.38,3.38,0,0,0,28.68,31a1.63,1.63,0,0,0,1.6,0,2.29,2.29,0,0,0,.87-1.84,5.45,5.45,0,0,0,0-.7c0-.48-.78-.48-.75,0a4.7,4.7,0,0,1,0,.65,2.32,2.32,0,0,1-.06.46l-.06.21a.36.36,0,0,1,0,.11c0,.06,0,0,0,.05l-.08.16a.18.18,0,0,0-.05.07c-.05.07,0,0,0,0l-.11.12s-.08.06,0,0,0,0-.05,0l-.12.07c.09,0,0,0-.08,0H29.6c-.06,0,.08,0,0,0a.75.75,0,0,1-.15,0h-.07l-.16,0-.08,0s-.09,0,0,0l0,0-.09,0-.14-.09-.07,0c-.05,0,0,0,0,0l0,0a2.29,2.29,0,0,1-.27-.27l-.06-.07c-.05-.05,0,0,0,0l-.13-.18a2.32,2.32,0,0,1-.32-.76,2.84,2.84,0,0,1-.08-.93,4.82,4.82,0,0,1,.24-1.07,4.4,4.4,0,0,1,.35-.83l.09-.16a.21.21,0,0,0,0-.06l0,0,.07-.08.09-.08s-.07,0,0,0l.05,0,0,0s-.06,0,0,0l.08,0s-.12,0-.05,0h0c-.11,0-.06,0,0,0s-.08-.06,0,0,0,0,0,0,.05,0,.07.06,0-.07,0,0a.41.41,0,0,1,0,.09l.05.09c-.06-.1,0,0,0,0a1.12,1.12,0,0,1,.06.23s0,0,0,.06,0-.07,0,0,0,.09,0,.14v.27s0,.16,0,.11a1,1,0,0,1,0,.1A2.45,2.45,0,0,1,29,27s-.07.16,0,.07a.83.83,0,0,1-.07.13.54.54,0,0,1-.07.13l-.05.07s-.06.08,0,0-.06.06-.08.08l-.11.12s-.14.11-.06.06l-.16.1-.14.08-.08,0h0l-.39.11h-.13l-.23,0-.52,0a.37.37,0,0,0-.37.37.38.38,0,0,0,.37.38Z" transform="translate(0)"/><path d="M32.28,28.5a1.77,1.77,0,0,0,.36,2.32,2.16,2.16,0,0,0,2.18.09,2.07,2.07,0,0,0,1.06-2.24,3.4,3.4,0,0,0-1.78-2c-.46-.28-.94-.51-1.42-.75-.21-.11-.43-.22-.63-.34l-.29-.17-.11-.07-.08-.06v.53c1.1-.88,2.59-.71,3.9-.67a.38.38,0,0,0,0-.75,13.47,13.47,0,0,0-2.29,0A4.09,4.09,0,0,0,31,25.3a.37.37,0,0,0,0,.53,11.57,11.57,0,0,0,2,1.11,5.17,5.17,0,0,1,1.88,1.36,1.32,1.32,0,0,1-.08,1.7,1.44,1.44,0,0,1-1.49.33.42.42,0,0,1-.17-.08L33,30.18,33,30.11l-.05-.06L32.85,30l0-.07a1.21,1.21,0,0,1,.12-1c.21-.43-.44-.81-.65-.38Z" transform="translate(0)"/><path d="M79.93,130.84h-.71a.38.38,0,0,0,0,.75,17.39,17.39,0,0,0,4.06-.42,7.32,7.32,0,0,1,4,.11c.44.19.83-.45.38-.65-2.72-1.18-5.66.41-8.46.21v.75h.71a.38.38,0,0,0,0-.75Z" transform="translate(0)"/><path d="M81.24,131.47a2.23,2.23,0,0,0-.56-.5.38.38,0,0,0-.56.33,29.87,29.87,0,0,0-.17,5.51,4.12,4.12,0,0,0,.9,2.35,2.61,2.61,0,0,0,2.48.91,3.72,3.72,0,0,0,2.4-1.88.38.38,0,0,0-.65-.38,3,3,0,0,1-1.79,1.5,1.94,1.94,0,0,1-2.06-.87,3.93,3.93,0,0,1-.57-2,20.51,20.51,0,0,1,0-2.6c0-.85.14-1.7.2-2.55l-.57.32a1.85,1.85,0,0,1,.41.38c.29.39.82-.15.53-.53Z" transform="translate(0)"/><path d="M78.55,136.5l.12-.07c.06,0-.07,0,0,0l.08,0,.43-.13c.4-.1.79-.17,1.19-.23a19.69,19.69,0,0,1,2.42-.27c.48,0,.48-.78,0-.75a23.07,23.07,0,0,0-2.62.29c-.41.07-.82.14-1.23.25a2.16,2.16,0,0,0-.78.29.39.39,0,0,0-.13.51.38.38,0,0,0,.51.14Z" transform="translate(0)"/><path d="M87.9,138a2.65,2.65,0,0,0,1.58,2,2.08,2.08,0,0,0,2.48-.15,1.69,1.69,0,0,0,.14-2.16,4.25,4.25,0,0,0-2-1.31,6.57,6.57,0,0,0-1.25-.33,4.07,4.07,0,0,0-1-.09l.32.57c.55-1,1.8-.85,2.76-.76a.38.38,0,0,0,0-.75c-1.26-.12-2.71-.12-3.4,1.13a.37.37,0,0,0,.32.56,1.61,1.61,0,0,1,.31,0h.34c.06,0-.06,0,0,0a7.86,7.86,0,0,1,1.9.55l.45.24c.13.09.28.19.36.26a2,2,0,0,1,.29.29l.1.14,0,.09c0,.07,0,0,0,0a1.17,1.17,0,0,1,.06.2v0s0,.08,0,.12,0,.06,0,.1,0,0,0,0a1.67,1.67,0,0,1-.06.2.85.85,0,0,1-.57.54,1.65,1.65,0,0,1-.92-.09,2.79,2.79,0,0,1-1-.63,1.79,1.79,0,0,1-.34-.44.65.65,0,0,1-.09-.19c0-.05,0-.09,0-.13a.07.07,0,0,0,0-.05c0-.07,0,.08,0,0a.38.38,0,0,0-.37-.37.38.38,0,0,0-.38.37Z" transform="translate(0)"/><path d="M93.13,130c.93,3-.21,6.31,1,9.23A3,3,0,0,0,96,141.17c1.1.24,1.84-.83,2.26-1.68.22-.43-.43-.81-.64-.37-.33.66-1,1.74-1.82,1.15a3.82,3.82,0,0,1-1.26-2.33c-.59-2.68.15-5.47-.67-8.13-.15-.46-.87-.26-.73.2Z" transform="translate(0)"/><path d="M91.93,136.29c1.58.16,3.12-.42,4.69-.26a.38.38,0,1,0,0-.75c-1.57-.16-3.11.42-4.69.26a.38.38,0,0,0-.38.37.39.39,0,0,0,.38.38Z" transform="translate(0)"/><path d="M102.2,134.77a2.63,2.63,0,0,0-2.69.89,3.27,3.27,0,0,0-.7,2.67,2.21,2.21,0,0,0,2,1.76,2.14,2.14,0,0,0,2.18-1.72,5.75,5.75,0,0,0,0-3.46.37.37,0,0,0-.72.2,29,29,0,0,0,1.32,5.08c.16.45.89.25.72-.2a29.64,29.64,0,0,1-1.32-5.08l-.72.2a5.12,5.12,0,0,1,.18,2.49,3.32,3.32,0,0,1-.41,1.18,1.22,1.22,0,0,1-.79.56,1.66,1.66,0,0,1-1.06-.23,1.33,1.33,0,0,1-.56-.7,2.36,2.36,0,0,1,.29-2,1.89,1.89,0,0,1,2.1-.91c.47.12.67-.61.2-.72Z" transform="translate(0)"/><path d="M104.35,127.93a35.84,35.84,0,0,1,1.35,5.4,22.75,22.75,0,0,1,.18,3.78c0,1.72.26,4.15,2.58,3.6.47-.11.27-.83-.2-.72-2,.47-1.63-2.64-1.6-3.85a26.6,26.6,0,0,0-1.59-8.41c-.14-.46-.87-.27-.72.2Z" transform="translate(0)"/><path d="M104.45,136.81c1.81.23,3.44-.72,5.22-.78.48,0,.48-.77,0-.75-1.77.06-3.43,1-5.22.78-.2,0-.37.19-.37.38a.37.37,0,0,0,.37.37Z" transform="translate(0)"/><path d="M110.08,135.91a6.93,6.93,0,0,0,.54,2.81,3.41,3.41,0,0,0,1.87,2.23,1.61,1.61,0,0,0,1.27-.17,2,2,0,0,0,.69-1,8.31,8.31,0,0,0,.38-2.89c0-.68-.06-1.35-.09-2,0-.48-.77-.48-.75,0a16.31,16.31,0,0,1-.08,4.07,2.67,2.67,0,0,1-.36,1,1,1,0,0,1-.2.21.7.7,0,0,1-.42.11c-.76,0-1.27-1-1.53-1.6a6.37,6.37,0,0,1-.57-2.75c0-.48-.73-.48-.75,0Z" transform="translate(0)"/><path d="M115.14,134.61a6.29,6.29,0,0,1,1.72,4.63l.74-.1a5.27,5.27,0,0,1,0-2.84,2.54,2.54,0,0,1,2.11-1.59c.47-.09.27-.81-.2-.72a3.29,3.29,0,0,0-2.6,2,5.84,5.84,0,0,0,0,3.34.37.37,0,0,0,.73-.1,7,7,0,0,0-1.94-5.16c-.36-.32-.89.21-.53.53Z" transform="translate(0)"/><path d="M122.45,134.23c-2.1.21-3,2.86-2.36,4.66a1.91,1.91,0,0,0,2.15,1.3c1.13-.19,1.71-1.34,2-2.33a11.79,11.79,0,0,0,.41-3.69.38.38,0,0,0-.75,0c0,2.06.71,4,1.06,6,.08.47.8.27.72-.2-.33-1.94-1.07-3.83-1-5.82h-.75a11.8,11.8,0,0,1-.2,2.72,3.51,3.51,0,0,1-1.2,2.41,1.1,1.1,0,0,1-1.6-.44,3,3,0,0,1-.13-2.2,2.12,2.12,0,0,1,1.68-1.68c.48,0,.48-.79,0-.75Z" transform="translate(0)"/><path d="M136.54,138.67a7.45,7.45,0,0,1-2.94-.25,2.46,2.46,0,0,1-1.15-2.5,9.29,9.29,0,0,1,1.05-3.23,8.23,8.23,0,0,1,1.73-2.54l-.45.06a1.34,1.34,0,0,1,.61.85c.16.45.89.25.73-.2a2.1,2.1,0,0,0-1-1.3.37.37,0,0,0-.45.06,8.15,8.15,0,0,0-1.57,2.15,13.78,13.78,0,0,0-1.2,2.89c-.44,1.63-.3,3.83,1.54,4.51a8.78,8.78,0,0,0,3.07.25.38.38,0,0,0,0-.75Z" transform="translate(0)"/><path d="M143.48,137.12a17.35,17.35,0,0,1-2.23.47,2.24,2.24,0,0,1-1.92-.46,1.41,1.41,0,0,1-.24-.39,2.13,2.13,0,0,1-.08-.27,1.16,1.16,0,0,1,0-.18c0,.09,0,0,0,0a1.94,1.94,0,0,1,.2-.82,5.65,5.65,0,0,1,1.35-1.83,3.32,3.32,0,0,1,.47-.37,1.86,1.86,0,0,1,.41-.22.74.74,0,0,1,.4-.07c.11,0-.07,0,0,0l.09,0s.1.08.09.07c.36.32.89-.2.53-.53a1.58,1.58,0,0,0-2,.15,6.27,6.27,0,0,0-1.82,2.08,3.88,3.88,0,0,0-.43,1.13,2.17,2.17,0,0,0,.22,1.3,2.33,2.33,0,0,0,2.22,1.18,11.72,11.72,0,0,0,3-.52.37.37,0,0,0-.2-.72Z" transform="translate(0)"/><path d="M145.77,137.38a28,28,0,0,1-.26-4.39l-.74.1c.36,1.1.18,2.27.46,3.39a.38.38,0,0,0,.72,0c.45-1.19,1-2.54,2.19-3.12h-.38a3,3,0,0,1,1.18,2.89h.75a3.9,3.9,0,0,1,1.4-3.21l-.51-.13a8,8,0,0,1,1.5,4.31c0,.48.78.48.75,0a8.76,8.76,0,0,0-1.61-4.69.37.37,0,0,0-.51-.13,4.62,4.62,0,0,0-1.77,3.85c0,.49.7.47.75,0a3.69,3.69,0,0,0-1.55-3.54.37.37,0,0,0-.38,0c-1.39.67-2,2.2-2.53,3.57H146c-.28-1.12-.1-2.28-.46-3.39a.37.37,0,0,0-.73.1,28.16,28.16,0,0,0,.29,4.59c.08.47.81.27.72-.2Z" transform="translate(0)"/><path d="M155.9,140.54a10.74,10.74,0,0,0-1.32-10.9c-.23-.27-.61,0-.64.27a3.61,3.61,0,0,0,.24,1.41.37.37,0,0,0,.72-.2,3,3,0,0,1-.21-1.21l-.64.26a10,10,0,0,1,1.21,10c-.2.44.45.82.64.38Z" transform="translate(0)"/><path d="M160.28,134.46a.38.38,0,0,0,0-.75.38.38,0,0,0,0,.75Z" transform="translate(0)"/><line class="cls-1" x1="45.75" y1="79.28" x2="147.78" y2="80.1"/><line class="cls-1" x1="147.49" y1="98.1" x2="147.23" y2="80.34"/><line class="cls-1" x1="47.07" y1="98.35" x2="147.47" y2="98.35"/><line class="cls-1" x1="47.26" y1="18.48" x2="100.67" y2="19.3"/><line class="cls-1" x1="100.52" y1="37.3" x2="100.39" y2="19.54"/><line class="cls-1" x1="47.95" y1="37.55" x2="100.51" y2="37.55"/><path class="cls-2" d="M48.65,35.08l.29.22.53.4a5.46,5.46,0,0,0,1.42.78,1.91,1.91,0,0,0,2.56-1.16C54,33.42,52,32,51.29,30.4L50,32.66c1.18,0,2.42,1.71,3.36,2.35a1.51,1.51,0,0,0,2.2-.89,4.91,4.91,0,0,0-1.32-4c-.78-1-2.09-2.18-2.3-3.52l-2.2,1.69c1.36.71,2.18,2.09,3.16,3.22a36.54,36.54,0,0,0,4,3.82,1.52,1.52,0,0,0,2.56-1.06c.08-2.35-1.89-4.12-3.4-5.66-.76-.78-1.46-1.62-2.17-2.43a8.33,8.33,0,0,1-2.09-3.26l-2.21,1.69c2.07,1.35,3.58,3.41,5.4,5.05a33.63,33.63,0,0,0,6.36,4.7c1.05.56,2.71-.4,2.21-1.7-.85-2.18-2.61-3.61-4.32-5.12a40.8,40.8,0,0,1-5.53-6.21L51.3,23.16c4.66,3.6,8,8.92,13.37,11.52a1.51,1.51,0,0,0,1.82-2.35c-1.81-2-3.48-4-5.09-6.15-1.39-1.84-3.07-3.49-4.15-5.55l-2,2.06c1.43.64,2.32,2.16,3.31,3.31a46.75,46.75,0,0,0,4.09,4.35,37.28,37.28,0,0,0,4.84,3.54c1.34.87,2.61,2.16,4.2,2.54a1.51,1.51,0,0,0,1.46-2.51q-3.25-3.23-6.21-6.71c-1.47-1.74-3.63-3.35-4.52-5.5l-2.51,1.46c5,4.51,9.37,9.86,15.23,13.38,1,.63,2.68-.43,2.21-1.69a11.32,11.32,0,0,0-2.53-3.5Q72.91,29.31,71,27.28c-1-1.1-2-2.21-3.1-3.28-.65-.66-2-1.79-2.18-2.79l-2.56,1.07C68.3,27.52,73.58,32.71,79.86,36.6a1.51,1.51,0,0,0,2.2-.9c.41-1.32-.49-2.45-1.32-3.37-1.08-1.18-2.14-2.39-3.22-3.57-2.43-2.67-5.52-5-7.48-8.09l-2.35,1.81a138.45,138.45,0,0,0,10,10c1.07.9,2.1,1.85,3.21,2.7s2.29,1.8,3.62,1.67c1-.1,2-1.23,1.3-2.26A57.93,57.93,0,0,0,80,28c-1-1-1.83-2.07-2.78-3.07a22.84,22.84,0,0,1-2.92-3.52l-1.69,2.2A6,6,0,0,1,75,25.46c.76.77,1.51,1.54,2.28,2.3,1.45,1.45,3,2.77,4.46,4.24,1.81,1.87,3.6,5,6.46,5.23A1.51,1.51,0,0,0,89.53,35C86.06,30,81.21,26.23,78,21.14L75.59,23c4.72,4.6,9,9.63,14.24,13.66,1.31,1,2.62-.87,2-2-2.43-5.07-7.25-8.31-10.22-13l-1.3,2.25c.55.06,1.23,1,1.6,1.3.71.66,1.44,1.31,2.14,2a44.15,44.15,0,0,1,3.41,3.43c1.63,1.91,3.34,4.6,6,5.2a1.51,1.51,0,0,0,1.84-1.84,9,9,0,0,0-2-3.32c-1-1.23-2-2.39-3-3.56-1.49-1.67-3.88-3.53-4.49-5.76l-2.5,1.46c4.35,3.83,7.51,8.81,12,12.49a1.51,1.51,0,0,0,2.51-1.45,6.38,6.38,0,0,0-1.54-2.55c-.77-1-1.38-2.2-2.12-3.27-1.33-1.93-3.26-3.65-4-5.94l-2.5,1.46c3.1,2.9,4.48,7.28,8.27,9.51a1.52,1.52,0,0,0,2.26-1.3c.16-1.66-1.06-3.14-2-4.37a25,25,0,0,1-3.29-4.82l-1.69,2.2C92,25,92.6,26.32,93.06,27a6.94,6.94,0,0,0,2.51,2.48c1.08.53,2.65-.37,2.2-1.7-.78-2.29-2.74-3.9-3.51-6.16l-2.2,1.7c1.33.85,2.07,2.84,3,4.08,1.13,1.45,3-.41,2.35-1.82s-1.13-2.5-1.74-3.73l-2.35,1.82c.89.94,1.69,2,2.58,2.91a1.51,1.51,0,0,0,2.56-1.06c-.11-1.53-1-2.66-1.46-4.06L94.3,22.6a14.71,14.71,0,0,0,2.26,2.89c1,.94,3,0,2.51-1.46a5.29,5.29,0,0,0-1.25-2c-1.35-1.39-3.47.73-2.13,2.12a1.48,1.48,0,0,1,.49.67l2.51-1.46a11,11,0,0,1-1.8-2.27c-.88-1.36-3.32-.53-2.74,1.15.36,1.05,1.27,2.16,1.35,3.27l2.56-1.06c-.89-.95-1.69-2-2.58-2.91-1.22-1.29-3.09.34-2.36,1.82q.91,1.84,1.74,3.72l2.36-1.82c-1.21-1.54-1.94-3.45-3.65-4.54a1.51,1.51,0,0,0-2.2,1.69c.78,2.29,2.74,3.9,3.51,6.16l2.2-1.69c-1.08-.53-1.62-1.72-2.27-2.67A5.94,5.94,0,0,0,92,21.78c-1.35-.5-2.18,1.14-1.69,2.2a23.05,23.05,0,0,0,3,4.47c.66.84,2,2.06,1.92,3.21l2.26-1.29c-3.46-2-4.8-6.36-7.67-9a1.51,1.51,0,0,0-2.51,1.46c.75,2.34,2.38,4,3.81,6,.76,1,1.41,2.11,2.1,3.19.49.76,1.58,1.7,1.74,2.59l2.51-1.46c-4.5-3.68-7.66-8.66-12-12.49a1.51,1.51,0,0,0-2.51,1.46c.63,2.35,2.55,4.06,4.13,5.81,1,1.06,1.9,2.13,2.83,3.21s2.19,2.25,2.53,3.62l1.85-1.85c-1.19-.28-2.1-1.44-2.87-2.31-.91-1-1.74-2.16-2.71-3.15-1.4-1.42-2.85-2.78-4.32-4.12-1.23-1.12-2.26-2.27-4-2.44a1.51,1.51,0,0,0-1.29,2.26c3,4.68,7.8,8,10.22,13l2-2c-5-3.86-9.11-8.78-13.63-13.19-1.19-1.16-3.29.35-2.35,1.82,3.27,5.11,8.11,8.9,11.58,13.84l1.3-2.26c-.79-.06-2.11-1.83-2.65-2.44a39.43,39.43,0,0,0-2.82-3c-1.6-1.45-3.12-3-4.63-4.5s-2.75-3-4.72-3.58A1.51,1.51,0,0,0,71.73,23a46.81,46.81,0,0,0,5.6,6.59c2,2.17,4.24,4.1,5.93,6.52l1.29-2.26c-.6.06-1.91-1.09-2.52-1.6-1-.87-2.08-1.77-3.11-2.66-3.27-2.82-6.11-6.09-9.11-9.18-1.17-1.2-3.29.37-2.36,1.82,1.72,2.69,4.21,4.74,6.39,7,1.16,1.21,2.28,2.45,3.38,3.71.36.41.71.82,1.09,1.21.2.22.43.43.61.67s.11.56.25.11l2.21-.9c-6.07-3.75-11.14-8.79-16.11-13.86-.83-.84-2.73-.28-2.56,1.06.35,2.76,2.82,4.57,4.58,6.49,1.26,1.37,2.55,2.7,3.81,4.07.6.64,1.18,1.31,1.78,2a6.59,6.59,0,0,1,1.52,1.93L76.61,34C71,30.58,66.83,25.38,62,21.05c-1-.89-3.14,0-2.51,1.46,1.05,2.52,3.1,4.32,4.88,6.33,2.16,2.45,4.29,4.9,6.62,7.2l1.46-2.51c-1.35-.32-2.71-1.72-3.87-2.47a29.53,29.53,0,0,1-4.81-3.74c-1.27-1.28-2.49-2.65-3.63-4a10.29,10.29,0,0,0-3.42-3.18,1.51,1.51,0,0,0-2.05,2c1.15,2.19,3,4,4.43,5.92,1.66,2.2,3.41,4.34,5.27,6.38l1.82-2.36C61,29.61,57.87,24.48,53.43,21a1.54,1.54,0,0,0-2-.12,1.49,1.49,0,0,0-.39,1.94A50.43,50.43,0,0,0,56.33,29c1.39,1.34,3.56,2.59,4.28,4.47l2.21-1.69A30.11,30.11,0,0,1,56.48,27c-1.79-1.7-3.34-3.62-5.42-5a1.51,1.51,0,0,0-2.2,1.69c.59,2.38,2.5,4.15,4,6,.64.75,1.37,1.43,2.05,2.16s1.48,1.49,1.45,2.45L59,33.22a35.11,35.11,0,0,1-4.18-4.09,12.27,12.27,0,0,0-3.54-3.42,1.52,1.52,0,0,0-2.2,1.69,7.71,7.71,0,0,0,1.89,3.36c.39.49,1.86,1.91,1.73,2.56l2.2-.9c-1.6-1.1-2.76-2.7-4.87-2.76a1.52,1.52,0,0,0-1.3,2.25,6.61,6.61,0,0,0,.7,1.1,12.57,12.57,0,0,0,1.06,1.65.35.35,0,0,1,.06.14c.08-.6.53-1,1.35-1.15a3.12,3.12,0,0,0-.57-.32c-.43-.28-.73-.55-1.14-.84-1.56-1.14-3,1.46-1.51,2.59Z" transform="translate(0)"/><path class="cls-3" d="M47.74,95.47c1.56.86,2.57,2.25,4.35,2.76A1.53,1.53,0,0,0,54,96.78c.36-3.15-3.29-4.75-4.14-7.41l-2.2,1.7c2.82,1.77,4.89,4.49,8.14,5.56,1.38.46,2.17-1.1,1.7-2.2A12.45,12.45,0,0,0,54,90.26c-1.27-1.12-2.89-2.29-3.55-3.91L48.62,88.2c2.67,1,4.86,2.91,7.05,4.67A26.87,26.87,0,0,0,63,97.41c1.11.42,2.12-.82,1.85-1.85-.62-2.37-2.76-4-4.61-5.48a32.52,32.52,0,0,1-6.29-5.94L52.6,86.4c.58.06,1.23.83,1.68,1.17.65.49,1.31,1,1.95,1.44,1.42,1.08,2.82,2.18,4.3,3.18a61.19,61.19,0,0,0,9.23,5c1.18.52,3.09-.72,2.06-2.06a21.09,21.09,0,0,0-3.08-2.89c-1.29-1.13-2.46-2.41-3.64-3.65-1.87-2-4.49-3.6-5.79-6l-1.69,2.21a5.12,5.12,0,0,1,2,1.37c.7.64,1.44,1.21,2.19,1.78,1.71,1.3,3.48,2.53,5.28,3.71s3.65,2.3,5.53,3.38c1.69,1,3.4,2.32,5.33,2.79A1.51,1.51,0,0,0,79.81,96a8.3,8.3,0,0,0-2.91-3.62c-1.46-1.23-2.9-2.49-4.38-3.69-2.81-2.29-6.1-4.23-8.56-6.9l-1.82,2.36c3.75,2.47,7.35,5.18,11.17,7.55,3.63,2.24,7.77,3.69,11.21,6.22,1.2.87,2.92-.86,2.06-2.06a50.38,50.38,0,0,0-7.29-7.74c-1.13-1-2.29-2-3.47-3a9.76,9.76,0,0,1-3-3.32L70.6,83.51a21.25,21.25,0,0,1,4,3.14,45.31,45.31,0,0,0,4.68,3.51c3.34,2.25,6.43,5,10,6.86a1.51,1.51,0,0,0,2.06-2,9.15,9.15,0,0,0-2.71-2.83c-1.26-1-2.4-2.14-3.59-3.23-2.54-2.34-5.26-4.44-7.58-7l-1.82,2.35c2.68,2,5.38,4,8.15,6s5.09,3.83,7.86,5.4A1.5,1.5,0,0,0,93.21,93c-2.78-1.57-5.25-3.59-7.87-5.4-2.77-1.91-5.47-3.91-8.15-6-1.41-1.07-2.89,1.16-1.81,2.36a97.52,97.52,0,0,0,7.24,6.69c1.18,1.08,2.3,2.23,3.54,3.24a9,9,0,0,1,2.63,2.53l2-2c-3.58-1.86-6.67-4.61-10-6.86a39.6,39.6,0,0,1-4.52-3.44,21.84,21.84,0,0,0-4.2-3.21c-1-.54-2.75.39-2.21,1.69,1.25,3,4,4.69,6.31,6.77a52,52,0,0,1,7.77,8l2.05-2c-3.45-2.53-7.58-4-11.21-6.22C71,86.74,67.41,84,63.65,81.56c-1.46-1-2.93,1.14-1.81,2.36,2.26,2.45,5.24,4.22,7.83,6.3,1.39,1.12,2.77,2.27,4.12,3.44,1,.87,2.66,1.81,3.12,3.13L78.76,95a9.39,9.39,0,0,1-2.62-1.33c-.92-.55-1.87-1.08-2.8-1.62q-2.81-1.64-5.49-3.43c-1.81-1.21-3.62-2.43-5.3-3.81-1.32-1.08-2.43-2.39-4.13-2.85a1.52,1.52,0,0,0-1.7,2.21c1.31,2.45,3.7,4,5.6,5.95,1.23,1.25,2.4,2.56,3.68,3.77a29.34,29.34,0,0,1,3.23,2.86l2-2a59.14,59.14,0,0,1-10-5.57c-1.53-1.08-3-2.25-4.48-3.36-1.32-1-2.51-2.15-4.21-2.32a1.5,1.5,0,0,0-1.29,2.25,31.84,31.84,0,0,0,6,5.95c1.57,1.23,4.07,2.71,4.61,4.76l1.84-1.85c-5.39-2-8.89-7.16-14.33-9.21a1.52,1.52,0,0,0-1.85,1.85,12.54,12.54,0,0,0,3.57,4.57c1.42,1.25,3,2.44,3.76,4.22l1.69-2.2c-2.9-.95-4.89-3.67-7.43-5.27a1.52,1.52,0,0,0-2.2,1.7,11,11,0,0,0,2.27,3.56c.67.81,1.89,1.92,1.76,3l1.9-1.45c-1.42-.4-2.36-1.75-3.64-2.45C47.56,92,46,94.54,47.74,95.47Z" transform="translate(0)"/><path class="cls-3" d="M92.73,91.55c-3.28-3.26-6.85-6.22-10-9.58l-1.82,2.36c1.67.88,2.94,2.31,4.44,3.43s3.27,2.27,5,3.33a48.65,48.65,0,0,1,4.65,3.15,22.4,22.4,0,0,0,4.59,3.15,1.52,1.52,0,0,0,2.06-2,13.67,13.67,0,0,0-2.66-3.17c-1.32-1.34-2.67-2.66-4-4-1-1-2.07-2-3.18-2.94a8.2,8.2,0,0,1-2.66-3l-1,1.85c-.25.07,0,0,.21.14s.63.36.93.57a20.53,20.53,0,0,1,1.75,1.36c1.67,1.38,3.52,2.54,5.28,3.81a56.17,56.17,0,0,1,4.28,3.72c1.33,1.18,2.79,2.36,4.63,2.49a1.5,1.5,0,0,0,1.44-1.89c-.89-2.25-3.19-3.79-4.83-5.49-2.06-2.14-4.18-4.28-6.06-6.58l-1.06,2.56c1.19,0,2.48,1.48,3.27,2.22,1.35,1.25,2.76,2.44,4.11,3.68a24.9,24.9,0,0,0,5,3.78c.7.37,1.41.74,2.13,1.08.33.15.66.29,1,.45.5.23.68.58.12-.19,1.14,1.54,3.74,0,2.59-1.51-.8-1.08-2.61-1.54-3.77-2.14a27.13,27.13,0,0,1-5.76-4.36c-1.36-1.23-2.73-2.46-4.11-3.67s-2.78-2.37-4.56-2.34a1.52,1.52,0,0,0-1.06,2.56c1.69,2.07,3.59,4,5.42,5.91.87.92,1.74,1.84,2.65,2.7.67.63,1.7,1.26,2.05,2.13l1.45-1.9c-1.44-.1-3-2-4-3a42.76,42.76,0,0,0-5.32-4.16c-1.7-1.17-2.69-2-4.33-3.26-1.15-.87-2.72-2.07-4.27-1.61a1.52,1.52,0,0,0-1,1.85c1,2.75,3.57,4.19,5.57,6.18,1.33,1.33,2.67,2.65,4,4A16.23,16.23,0,0,1,99,96.85l2-2a23.55,23.55,0,0,1-4.63-3.19,51.8,51.8,0,0,0-4.62-3.11c-1.68-1.06-3.39-2.11-5-3.33a31.21,31.21,0,0,0-4.43-3.43,1.5,1.5,0,0,0-1.82,2.35c3.19,3.36,6.75,6.32,10,9.58a1.5,1.5,0,0,0,2.12-2.12Z" transform="translate(0)"/><path class="cls-3" d="M103.64,90.64c-.46.3-.75,0-.55.18a2.55,2.55,0,0,0,.53.18,13.22,13.22,0,0,1,1.22.53c.87.4,1.72.83,2.56,1.28,2.42,1.28,4.23,3.41,6.61,4.75a1.53,1.53,0,0,0,2.26-1.3c.3-2.41-2.77-4.75-4.35-6.12-2.07-1.78-5.16-3.69-6-6.41l-1.85,1.85a11.22,11.22,0,0,1,3.7,2c1.52,1,3,2,4.53,3,3,2.06,5.75,4.45,9,6.1,1.21.61,3-.75,2-2a15.45,15.45,0,0,0-3.28-3c-1.51-1.14-2.92-2.42-4.38-3.63-2.87-2.39-5.81-4.75-8.86-6.9l-1.16,2.74c2,.73,3.67,2.3,5.41,3.52s3.73,2.67,5.58,4c3.31,2.43,6.75,5.57,10.88,6.44a1.51,1.51,0,0,0,1.84-1A3.71,3.71,0,0,0,128,93.37c-1.22-1.2-2.42-2.42-3.64-3.61-2.59-2.52-5.57-4.62-8.09-7.2l-1.46,2.51c1.57.44,3.06,2,4.31,3,1.52,1.2,3,2.43,4.55,3.62,3.07,2.41,6.38,4.46,9.54,6.75,1.19.86,2.92-.86,2-2-3.74-5.1-9.51-8.23-13.17-13.36l-2,2c2.74,1.92,5,4.37,7.63,6.47s5.61,4,8.44,5.92c1.26.86,2.81-.81,2-2-3.06-5-7.92-8.48-11.26-13.25l-2.05,2a18.17,18.17,0,0,1,3.15,3c1.18,1.17,2.47,2.23,3.75,3.27,2.75,2.21,5.54,4.38,8.32,6.55,1.27,1,3.24-.22,2.35-1.82a48.72,48.72,0,0,0-5.16-6.74c-.52-.63-1.09-1.21-1.65-1.81-.27-.29-1.38-1.38-1.27-1.74l-1.85,1c2.06.79,3.53,3.37,4.85,5a21.19,21.19,0,0,0,5.22,5.17,1.51,1.51,0,0,0,2.2-1.7c-.72-2.85-3-4.78-5-6.82-.75-.79-1.5-1.56-2.29-2.32-.46-.44-1.81-1.56-1.83-2.12l-2.26,1.29c3.7,1.76,5.48,5.93,8.91,8.1a1.51,1.51,0,0,0,2-2c-1.9-3.12-4.42-5.8-6.31-8.92l-2,2.05c1.38.87,2.13,2.41,3,3.75A10.47,10.47,0,0,0,142.31,91a1.51,1.51,0,0,0,2.2-.9c.71-2.83-2.35-4.93-3.51-7.15l-2.36,1.82c1.45,1.38,2.37,3.19,3.71,4.68,1.07,1.19,2.79-.09,2.51-1.46a20,20,0,0,0-1.36-3.36l-2.2,1.69a1.24,1.24,0,0,1,.59.49c1.11,1.57,3.71.07,2.6-1.51a5,5,0,0,0-1.68-1.57c-1-.59-2.71.42-2.2,1.69A19.92,19.92,0,0,1,142,88.82l2.51-1.46c-1.34-1.49-2.25-3.29-3.7-4.69a1.51,1.51,0,0,0-2.36,1.82,19,19,0,0,0,1.87,2.6c.33.45,1.47,1.74,1.34,2.24l2.21-.89c-1.41-.83-2.16-2.34-3-3.67a11.08,11.08,0,0,0-3.36-3.71,1.51,1.51,0,0,0-2.06,2c1.89,3.12,4.41,5.81,6.31,8.92l2.06-2c-3.45-2.18-5.13-6.3-8.91-8.1a1.52,1.52,0,0,0-2.26,1.3c.09,2.37,2.58,4,4.08,5.56,1.8,1.87,4.48,3.89,5.14,6.5l2.2-1.69c-2.09-1.25-3.77-3.63-5.26-5.53s-3.12-4-5.52-5a1.51,1.51,0,0,0-1.84,1.05c-.66,2.21,1.55,4.13,2.9,5.56a36.89,36.89,0,0,1,5.48,7l2.36-1.81c-2.9-2.26-5.82-4.52-8.67-6.84a42.09,42.09,0,0,1-3.67-3.26,18.16,18.16,0,0,0-3.49-3.18c-1.23-.75-2.93.79-2,2.05,3.33,4.77,8.22,8.27,11.26,13.25l2.05-2.05a97,97,0,0,1-8.49-6c-2.53-2.13-4.86-4.47-7.58-6.38-1.2-.84-2.91.85-2,2.06,3.68,5.15,9.44,8.27,13.17,13.35l2.05-2.05c-3.33-2.41-6.81-4.58-10-7.14-1.56-1.25-3.11-2.52-4.7-3.74-1.36-1-2.69-2.32-4.38-2.79a1.51,1.51,0,0,0-1.46,2.5c2.08,2.13,4.52,3.87,6.71,5.89,1.1,1,2.17,2.09,3.24,3.16.48.48,1,1,1.45,1.45.19.18.38.35.56.54s.36.6.42.27l1.85-1A15.72,15.72,0,0,1,122.58,92q-2.6-1.86-5.14-3.76c-1.81-1.33-3.66-2.6-5.47-3.93A22.34,22.34,0,0,0,106.48,81c-1.7-.61-2.46,1.83-1.16,2.75,2.85,2,5.58,4.21,8.26,6.43,1.33,1.1,2.63,2.25,4,3.33a16.07,16.07,0,0,1,3.21,2.71l2-2c-3.37-1.72-6.27-4.22-9.37-6.36-1.46-1-3-1.93-4.44-2.92a12.2,12.2,0,0,0-4.13-2.16A1.52,1.52,0,0,0,103,84.53c.9,3,3.53,5,5.8,6.92,1,.84,2,1.69,2.9,2.61a10.35,10.35,0,0,1,1.19,1.37,1.33,1.33,0,0,1,.34.83L115.53,95A44.91,44.91,0,0,1,111,91.5a20.25,20.25,0,0,0-2.84-1.69c-1.08-.55-2.17-1.09-3.29-1.54-.83-.33-1.87-.75-2.71-.22-1.63,1-.13,3.63,1.51,2.59Z" transform="translate(0)"/></svg>